<svg height="512pt" viewBox="0 0 512.03979 512" width="512pt" xmlns="http://www.w3.org/2000/svg"><path d="m59.765625 512.035156h392.535156c14.128907-.015625 25.582031-11.46875 25.597657-25.601562v-294.253906c12.785156 3.78125 26.394531-2.488282 31.828124-14.660157 5.433594-12.175781 1.015626-26.492187-10.335937-33.484375l-230.035156-140.253906c-8.171875-5.011719-18.472657-5.015625-26.648438-.003906l-230.089843 140.296875c-11.339844 7.023437-15.738282 21.347656-10.292969 33.523437 5.441406 12.175782 19.046875 18.453125 31.839843 14.695313v294.140625c.015626 14.132812 11.46875 25.585937 25.601563 25.601562zm145.066406-17.066406h-102.398437v-170.667969h102.398437zm256-8.535156c-.003906 4.710937-3.820312 8.53125-8.53125 8.535156h-230.402343v-170.667969c-.011719-9.421875-7.644532-17.054687-17.066407-17.066406h-102.398437c-9.421875.011719-17.058594 7.644531-17.066406 17.066406v170.667969h-25.601563c-4.710937-.003906-8.527344-3.824219-8.53125-8.535156v-303.453125l200.359375-121.980469c2.726562-1.664062 6.15625-1.664062 8.882812 0l200.355469 121.984375zm-429.101562-311.554688c-4.484375 2.734375-10.339844 1.351563-13.128907-3.105468-2.785156-4.457032-1.46875-10.324219 2.957032-13.164063l230.035156-140.261719c2.726562-1.667968 6.160156-1.667968 8.882812.003906l229.976563 140.222657c4.277344 2.679687 5.746094 8.21875 3.355469 12.667969-1.230469 2.34375-3.390625 4.0625-5.949219 4.742187-2.578125.695313-5.332031.28125-7.59375-1.144531l-210.921875-128.417969c-8.167969-4.992187-18.445312-4.992187-26.617188 0h-.007812zm0 0"/><path d="m136.566406 392.570312h34.132813c9.421875-.011718 17.054687-7.648437 17.066406-17.070312v-17.066406c-.011719-9.417969-7.644531-17.054688-17.066406-17.066406h-34.132813c-9.421875.011718-17.054687 7.648437-17.066406 17.066406v17.066406c.011719 9.421875 7.644531 17.058594 17.066406 17.070312zm0-34.136718h34.132813l.007812 17.066406h-34.140625zm0 0"/><path d="m128.03125 426.703125v8.53125c0 4.714844 3.820312 8.535156 8.535156 8.535156 4.710938 0 8.53125-3.820312 8.53125-8.535156v-8.53125c4.714844 0 8.535156-3.820313 8.535156-8.535156 0-4.710938-3.820312-8.53125-8.535156-8.53125h-17.066406c-4.710938 0-8.53125 3.820312-8.53125 8.53125 0 4.714843 3.820312 8.535156 8.53125 8.535156zm0 0"/><path d="m205.5 145.714844c-21.601562 3.34375-38.691406 20.035156-42.554688 41.546875-3.859374 21.511719 6.359376 43.105469 25.445313 53.753906 19.089844 10.648437 42.832031 8.003906 59.109375-6.582031v30.136718h-8.535156c-4.710938 0-8.53125 3.820313-8.53125 8.53125 0 4.714844 3.820312 8.535157 8.53125 8.535157h34.132812c4.714844 0 8.535156-3.820313 8.535156-8.535157 0-4.710937-3.820312-8.53125-8.535156-8.53125h-8.53125v-30.128906c16.265625 14.578125 39.988282 17.226563 59.070313 6.59375 19.078125-10.632812 29.308593-32.199218 25.464843-53.703125-3.839843-21.5-20.90625-38.195312-42.484374-41.5625-3.859376-24.929687-25.3125-43.328125-50.539063-43.34375-25.226563-.011719-46.699219 18.363281-50.582031 43.289063zm84.257812 2.722656c1.191407 7.285156 6.917969 12.984375 14.207032 14.144531 14.59375 2.3125 26.042968 13.75 28.371094 28.34375 2.324218 14.589844-5.003907 29.023438-18.152344 35.757813-13.152344 6.734375-29.144532 4.242187-39.625-6.171875-4.847656-5.003907-11.511719-7.835938-18.480469-7.847657-6.964844-.011718-13.640625 2.792969-18.503906 7.78125-10.464844 10.488282-26.5 13.039063-39.699219 6.308594-13.203125-6.734375-20.554688-21.207031-18.210938-35.839844 2.347657-14.628906 13.859376-26.078124 28.5-28.34375 7.289063-1.1875 12.996094-6.917968 14.152344-14.210937 2.59375-16.625 16.925782-28.878906 33.753906-28.859375 16.828126.019531 31.128907 12.304688 33.6875 28.9375zm0 0"/><path d="m273.097656 324.300781v85.335938h-8.53125c-4.714844 0-8.535156 3.820312-8.535156 8.53125 0 4.714843 3.820312 8.535156 8.535156 8.535156h153.597656c4.714844 0 8.535157-3.820313 8.535157-8.535156 0-4.710938-3.820313-8.53125-8.535157-8.53125h-8.53125v-85.335938c-.011718-9.421875-7.644531-17.054687-17.066406-17.066406h-102.402344c-9.417968.011719-17.054687 7.644531-17.066406 17.066406zm59.734375 85.335938h-42.667969v-34.136719h42.667969zm17.066407-34.136719h17.066406c4.714844 0 8.535156-3.820312 8.535156-8.53125 0-4.714844-3.820312-8.535156-8.535156-8.535156h-17.066406v-34.132813h42.667968v85.335938h-42.667968zm-17.066407-17.066406h-42.667969v-34.132813h42.667969zm0 0"/></svg>