<svg height="512pt" viewBox="0 0 512.01503 512" width="512pt" xmlns="http://www.w3.org/2000/svg"><path d="m153.601562 170.675781c4.710938 0 8.53125-3.820312 8.53125-8.535156v-25.601563c0-4.710937-3.820312-8.53125-8.53125-8.53125-4.714843 0-8.535156 3.820313-8.535156 8.53125v25.601563c0 4.714844 3.820313 8.535156 8.535156 8.535156zm0 0"/><path d="m93.261719 222.480469c.066406.066406.152343.085937.222656.152343 33.234375 33.125 87 33.125 120.234375 0 .066406-.066406.152344-.085937.21875-.152343.070312-.070313.085938-.152344.148438-.222657 33.128906-33.230468 33.128906-87.003906 0-120.234374-.0625-.066407-.085938-.160157-.148438-.222657-.058594-.058593-.152344-.085937-.21875-.152343-33.234375-33.121094-87-33.121094-120.234375 0-.070313.066406-.15625.085937-.222656.152343-.070313.070313-.085938.15625-.144531.222657-33.132813 33.230468-33.132813 87.003906 0 120.234374.058593.070313.082031.164063.144531.222657zm.605469-68.871094h-7.945313c1.523437-12.140625 6.296875-23.640625 13.824219-33.28125l5.582031 5.589844c2.140625 2.21875 5.3125 3.105469 8.296875 2.324219 2.984375-.777344 5.3125-3.109376 6.09375-6.09375.78125-2.984376-.105469-6.15625-2.324219-8.296876l-5.582031-5.589843c9.640625-7.511719 21.128906-12.277344 33.253906-13.796875v7.941406c0 4.714844 3.820313 8.535156 8.535156 8.535156 4.710938 0 8.53125-3.820312 8.53125-8.535156v-7.941406c12.136719 1.519531 23.632813 6.292968 33.28125 13.8125l-5.582031 5.589844c-2.21875 2.144531-3.109375 5.316406-2.328125 8.300781.78125 2.980469 3.113282 5.3125 6.097656 6.09375 2.980469.78125 6.15625-.109375 8.296876-2.328125l5.582031-5.589844c7.523437 9.644531 12.300781 21.144531 13.824219 33.28125h-7.972657c-4.710937 0-8.53125 3.820312-8.53125 8.53125 0 4.714844 3.820313 8.535156 8.53125 8.535156h7.945313c-1.519532 12.136719-6.296875 23.636719-13.824219 33.28125l-5.578125-5.589844c-3.351562-3.234374-8.671875-3.1875-11.964844.101563-3.289062 3.292969-3.335937 8.617187-.101562 11.964844l5.578125 5.589843c-9.640625 7.5-21.128907 12.261719-33.253907 13.78125v-7.945312c0-4.714844-3.820312-8.535156-8.53125-8.535156-4.714843 0-8.535156 3.820312-8.535156 8.535156v7.945312c-12.136718-1.523437-23.632812-6.296874-33.28125-13.816406l5.582032-5.589844c2.21875-2.144531 3.109374-5.316406 2.328124-8.300781-.78125-2.980469-3.113281-5.3125-6.09375-6.09375-2.984374-.78125-6.15625.109375-8.300781 2.328125l-5.582031 5.589844c-7.523438-9.644531-12.300781-21.144531-13.820312-33.28125h7.96875c4.710937 0 8.53125-3.820312 8.53125-8.53125 0-4.714844-3.820313-8.535156-8.53125-8.535156zm0 0"/><path d="m512 220.054688c-2.101562-56.566407-48.875-101.167969-105.480469-100.582032h-141.464843c-3.582032-9.347656-8.328126-18.207031-14.132813-26.367187 4.59375-1.074219 8.800781-3.402344 12.144531-6.730469l18.105469-18.101562c6.664063-6.664063 6.664063-17.46875 0-24.132813l-18.097656-18.097656c-6.753907-6.449219-17.386719-6.449219-24.140625 0l-18.097656 18.097656c-3.992188 4.023437-6.519532 9.265625-7.1875 14.890625-9.207032-5.375-19.097657-9.488281-29.40625-12.226562 2.261718-3.839844 3.464843-8.207032 3.492187-12.664063v-17.066406c0-9.425781-7.640625-17.0664065-17.066406-17.0664065h-34.132813c-9.425781 0-17.070312 7.6406255-17.070312 17.0664065v17.066406c.027344 4.457031 1.234375 8.824219 3.492187 12.664063-10.308593 2.738281-20.199219 6.851562-29.40625 12.226562-.667969-5.625-3.195312-10.867188-7.183593-14.890625l-18.101563-18.097656c-6.75-6.449219-17.378906-6.449219-24.132813 0l-18.105468 18.097656c-6.664063 6.664063-6.664063 17.46875 0 24.132813l18.097656 18.101562c3.363281 3.332031 7.582031 5.664062 12.195312 6.730469-5.816406 8.15625-10.578124 17.015625-14.175781 26.367187h-25.078125c-9.425781 0-17.066406 7.640625-17.066406 17.066406v76.800782c0 9.425781 7.640625 17.066406 17.066406 17.066406h28.765625c-37.632812 24.964844-54.472656 71.636719-41.441406 114.878906 13.027344 43.238282 52.847656 72.839844 98.007813 72.855469h145.066406v76.800781c0 9.425782 7.644531 17.066406 17.070312 17.066406h141.984375c56.605469.589844 103.378907-44.015624 105.480469-100.582031.707031-41.328125-23.457031-79.046875-61.296875-95.683593 37.839844-16.640626 62.003906-54.355469 61.296875-95.6875zm-460.800781-57.914063c0-56.554687 45.847656-102.398437 102.402343-102.398437 56.550782 0 102.398438 45.84375 102.398438 102.398437s-45.847656 102.398437-102.398438 102.398437c-56.53125-.058593-102.339843-45.871093-102.402343-102.398437zm181.699219-105.933594 18.101562-18.097656 18.105469 18.097656-18.105469 18.101563c-3.371094 3.234375-8.695312 3.234375-12.066406 0l-6.035156-6.035156c-3.328126-3.332032-3.328126-8.734376 0-12.066407zm-87.832032-13.53125c-4.710937 0-8.53125-3.820312-8.53125-8.535156v-17.066406h34.132813v17.066406c0 4.714844-3.820313 8.535156-8.535157 8.535156zm-106.972656 13.53125 18.105469-18.097656 18.101562 18.097656c3.332031 3.332031 3.332031 8.734375 0 12.066407l-6.035156 6.035156c-3.371094 3.234375-8.695313 3.234375-12.066406 0zm-21.027344 80.332031h19.898438c-5.78125 25.867188-2.660156 52.929688 8.859375 76.800782h-28.757813zm392.535156 170.667969h-307.203124c-4.710938 0-8.53125 3.820313-8.53125 8.535157 0 4.710937 3.820312 8.53125 8.53125 8.53125h307.203124c22.902344-.023438 44.851563 9.171874 60.902344 25.507812 16.050782 16.339844 24.855469 38.445312 24.429688 61.34375-1.894532 47.28125-41.101563 84.445312-88.414063 83.816406h-141.984375v-76.800781h145.066406c4.710938 0 8.53125-3.820313 8.53125-8.53125 0-4.714844-3.820312-8.535156-8.53125-8.535156h-307.203124c-39.351563.058593-73.625-26.84375-82.917969-65.085938-9.292969-38.238281 8.8125-77.867187 43.800781-95.878906 24.035156 27.972656 59.664062 43.238281 96.492188 41.339844 36.828124-1.898438 70.703124-20.746094 91.730468-51.042969h158.097656c4.710938 0 8.53125-3.820312 8.53125-8.53125 0-4.714844-3.820312-8.535156-8.53125-8.535156h-148.226562c11.519531-23.871094 14.640625-50.933594 8.859375-76.800782h136.285156c47.3125-.628906 86.519531 36.539063 88.414063 83.816407.425781 22.898437-8.378906 45.007812-24.429688 61.34375-16.050781 16.335937-38 25.53125-60.902344 25.507812zm0 0"/><path d="m221.867188 435.207031h-59.734376c-4.710937 0-8.53125 3.820313-8.53125 8.535157 0 4.710937 3.820313 8.53125 8.53125 8.53125h59.734376c4.710937 0 8.53125-3.820313 8.53125-8.53125 0-4.714844-3.820313-8.535157-8.53125-8.535157zm0 0"/><path d="m128 435.207031h-8.535156c-4.710938 0-8.53125 3.820313-8.53125 8.535157 0 4.710937 3.820312 8.53125 8.53125 8.53125h8.535156c4.710938 0 8.535156-3.820313 8.535156-8.53125 0-4.714844-3.824218-8.535157-8.535156-8.535157zm0 0"/></svg>