<svg height="512" viewBox="0 0 60 60" width="512" xmlns="http://www.w3.org/2000/svg"><g id="020---Royal-Guard"><path id="Shape" d="m55.229 50.026-16.229-3.818v-5.825c1.4903675-1.5676407 2.224163-3.7065997 2.01-5.859.509-.3 1.008-.608 1.478-.941 1.5782889-1.1251703 2.5143249-2.9447021 2.512-4.883v-20.7c-.0049599-4.41622192-3.5837781-7.99504012-8-8h-14c-4.4162219.00495988-7.9950401 3.58377808-8 8v20.7c-.0029727 1.9390035.9331352 3.7594205 2.512 4.885.47.333.969.644 1.479.941-.1988042 2.1276667.5146725 4.2397469 1.963 5.811.087.1.046-.421.046 5.873-17.575 4.134-16.267 3.82-16.409 3.872-.829.303-4.591 1.931-4.591 8.918 0 .5522847.44771525 1 1 1h58c.5522847 0 1-.4477153 1-1 0-7.692-4.563-8.921-4.771-8.974zm-13.229-1.057 6 1.411v2.62l-6-1.5zm1-20.269c.003333 1.2904043-.6182223 2.502586-1.668 3.253-.13.092-.268.178-.4.267.0154615-.7991968.1109381-1.5948352.285-2.375.138-.735.3-1.631.416-2.843h1.3670133zm-26-20.7c.0033074-3.31233757 2.6876624-5.99669262 6-6h14c3.3123376.00330738 5.9966926 2.68766243 6 6v17h-26zm1.668 23.951c-1.0492017-.7500044-1.6706851-1.961301-1.668-3.251l-.0000087-1.7h1.3690087c.245 2.582.7 3.615.7 5.218-.133-.09-.269-.175-.401-.267zm2.356 1.749c.173-3.705-.318-3.444-.649-6.7h19.25c-.211 2.076-.7 3.475-.7 5.23 0 2.815.606 4.568-1.4 6.8-1.2353535 1.1390667-2.3198316 2.4315684-3.227 3.846-1.689 2.536-1.625 2.124-5.828 2.124-2.321 0-2.418-2.608-5.427-5.381-2.035-1.957-2.143-3.292-2.019-5.919zm15.976 8.828v3.977c-1.7722432 1.2863915-3.8319785 2.1202411-6 2.429v-1.934h.53c3.08 0 3.792-2.322 5.47-4.472zm-8 4.472v1.934c-2.1680215-.3087589-4.2277568-1.1426085-6-2.429v-3.978c1.679 2.153 2.392 4.473 5.47 4.473zm-17 3.381 6-1.412v2.531l-6 1.5zm-9.97 7.619c.244-3.912 1.9-5.339 2.732-5.813.4.6 1.111 2.158 1.222 5.813zm20.97-4v4h-15.019c.05291996-2.19204-.37155736-4.369363-1.244-6.381l3.263-.768v2.149c.00017.6155798.283807 1.1967864.7689581 1.5756887.4851511.3789022 1.1177594.5132816 1.7150419.3643113l6-1.5c.8906563-.2221417 1.5157464-1.0220591 1.516-1.94v-3l1.766-.415c1.0318368.7496941 2.1473228 1.3769033 3.324 1.869-1.3079749.9330573-2.086056 2.439333-2.09 4.046zm29.019 4h-27.019v-4c0-1.6568542 1.3431458-3 3-3h2c2.9768363-.1155261 5.848318-1.1327854 8.234-2.917l1.766.417v3c.0002536.9179409.6253437 1.7178583 1.516 1.94 6.489 1.622 6.137 1.56 6.489 1.56 1.1026164-.0027565 1.9950034-.8973802 1.995-2v-2.149l3.264.768c-.8736461 2.0112931-1.2985025 4.1888105-1.245 6.381zm2 0c.111-3.654.821-5.216 1.224-5.815.835.474 2.488 1.9 2.731 5.815z"/><circle id="Oval" cx="29" cy="55" r="1"/></g></svg>