<svg xmlns="http://www.w3.org/2000/svg" width="25" height="17.219" viewBox="0 0 25 17.219"><defs><style>.a{fill-rule:evenodd;}</style></defs><path class="a" d="M.747,59.793c-.067.174-.091,4.04-.055,8.592l.066,8.277H25.595l.066-8.249c.047-5.878-.016-8.347-.219-8.592-.4-.486-24.508-.513-24.695-.028m11.677,3.142c0,2.2,0,2.2-.726,2.477-2.259.853-2.229,4.463.045,5.557.661.318.681.389.681,2.446v2.119L6.968,75.5a44.473,44.473,0,0,1-4.955-.141C6.267,74.412,8.347,72.32,8.6,68.73c.287-3.994-1.666-6.413-6.215-7.7-.653-.185.519-.255,4.578-.274l5.456-.026v2.2m11.289-1.9c-3.08.871-4.269,1.692-5.365,3.706-2.354,4.325-.026,9.194,4.989,10.431,1.12.276.669.312-4.2.337l-5.456.028V73.394c0-1.986.04-2.154.564-2.357,2.493-.963,2.333-5.79-.192-5.79-.3,0-.372-.429-.372-2.258V60.732l5.456.026c4.06.019,5.232.089,4.578.274M3.2,62.581c5.822,1.752,5.353,10.269-.624,11.335l-.941.168V72.442c0-1.852-.088-1.775,2.354-2.053,3.9-.445,3.734-3.865-.223-4.475L1.762,65.6,1.688,63.92c-.082-1.853-.11-1.828,1.514-1.339m21.212,1.347-.074,1.691-1.38.189c-2.83.387-3.512.841-3.512,2.337,0,1.331.837,2.037,2.663,2.245,2.443.278,2.354.2,2.354,2.057V74.09l-.809-.162a5.849,5.849,0,0,1-.447-11.457c1.253-.381,1.284-.344,1.2,1.456m-11.99,4.226c0,1.783-.333,2.052-.956.772a1.677,1.677,0,0,1,.364-2.046c.567-.567.593-.511.593,1.274m2.118-1.094c.628.9.209,2.7-.627,2.7-.13,0-.237-.734-.237-1.631,0-1.718.22-1.992.864-1.073M3.393,68.1c0,1.072-.023,1.1-.878,1.2l-.878.1V67h.878c.87,0,.878.01.878,1.1m21.073.1v1.2l-.878-.1c-.855-.1-.878-.132-.878-1.2,0-1.092.008-1.1.878-1.1h.878v1.2m-19.115,0c-.123,1.029-.7.99-.7-.047,0-.7.082-.859.39-.741.244.094.361.389.314.788m16.1-.045c0,.779-.054.864-.376.6a.725.725,0,0,1-.075-1.2c.43-.43.452-.4.452.608" transform="translate(-0.676 -59.442)"/></svg>