<svg height="852pt" viewBox="-27 -26 852 852.4978" width="852pt" xmlns="http://www.w3.org/2000/svg"><path d="m612.902344 146.757812c-40.835938-99.363281-142.816406-159.390624-249.503906-146.863281-106.691407 12.53125-191.996094 94.558594-208.6875 200.679688-79.246094 13.011719-141.257813 75.292969-153.921876 154.59375-12.664062 79.304687 26.863282 157.808593 98.105469 194.855469 6.53125 3.394531 14.570313.863281 17.972657-5.65625 3.398437-6.535157.863281-14.578126-5.660157-17.972657-62.546875-32.523437-96.40625-102.175781-83.332031-171.445312 13.070312-69.277344 69.976562-121.804688 140.070312-129.296875 6.207032-.660156 11.121094-5.535156 11.828126-11.738282 11.078124-97.933593 87.9375-175.46875 185.769531-187.402343 97.839843-11.9375 191.082031 44.832031 225.390625 137.226562 1.789062 4.789063 6.144531 8.128907 11.230468 8.605469 79.421876 7.550781 145.238282 64.800781 163.734376 142.40625 18.5 77.605469-14.425782 158.382812-81.898438 200.945312-4.023438 2.542969-6.390625 7.035157-6.199219 11.792969.1875 4.753907 2.902344 9.046875 7.117188 11.261719 4.210937 2.210938 9.28125 2.011719 13.304687-.53125 75.839844-47.839844 113.617188-138.027344 94.523438-225.632812-19.101563-87.613282-90.996094-153.894532-179.863282-165.828126zm0 0"/><path d="m238.261719 723.640625v41.105469c.027343 18.058594 14.664062 32.691406 32.726562 32.722656h14.464844c18.058594-.03125 32.695313-14.664062 32.722656-32.722656v-41.105469c-.027343-18.058594-14.664062-32.695313-32.722656-32.722656h-14.464844c-18.0625.027343-32.699219 14.664062-32.726562 32.722656zm26.632812 0c.015625-3.363281 2.734375-6.078125 6.09375-6.085937h14.464844c3.359375.007812 6.078125 2.722656 6.082031 6.085937v41.105469c-.003906 3.359375-2.722656 6.078125-6.082031 6.089844h-14.464844c-3.359375-.011719-6.078125-2.730469-6.09375-6.089844zm0 0"/><path d="m131.707031 723.640625v41.105469c.027344 18.058594 14.660157 32.691406 32.71875 32.722656h14.46875c18.0625-.03125 32.695313-14.664062 32.726563-32.722656v-41.105469c-.03125-18.058594-14.664063-32.695313-32.726563-32.722656h-14.46875c-18.058593.027343-32.691406 14.664062-32.71875 32.722656zm26.636719 0c.003906-3.363281 2.730469-6.078125 6.082031-6.085937h14.46875c3.363281.007812 6.082031 2.722656 6.089844 6.085937v41.105469c-.007813 3.359375-2.726563 6.078125-6.089844 6.089844h-14.46875c-3.351562-.011719-6.078125-2.730469-6.082031-6.089844zm0 0"/><path d="m398.097656 723.640625v41.105469c.023438 18.058594 14.660156 32.691406 32.726563 32.722656h14.457031c18.070312-.03125 32.703125-14.664062 32.730469-32.722656v-41.105469c-.027344-18.058594-14.660157-32.695313-32.730469-32.722656h-14.457031c-18.066407.027343-32.703125 14.664062-32.726563 32.722656zm26.636719 0c.003906-3.363281 2.726563-6.078125 6.089844-6.085937h14.457031c3.359375.007812 6.089844 2.722656 6.09375 6.085937v41.105469c-.003906 3.359375-2.734375 6.078125-6.09375 6.089844h-14.457031c-3.363281-.011719-6.085938-2.730469-6.089844-6.089844zm0 0"/><path d="m504.652344 723.640625v41.105469c.027344 18.058594 14.664062 32.691406 32.722656 32.722656h14.46875c18.0625-.03125 32.691406-14.664062 32.726562-32.722656v-41.105469c-.035156-18.058594-14.664062-32.695313-32.726562-32.722656h-14.46875c-18.058594.027343-32.695312 14.664062-32.722656 32.722656zm26.640625 0c.003906-3.363281 2.726562-6.078125 6.082031-6.085937h14.46875c3.359375.007812 6.078125 2.722656 6.085938 6.085937v41.105469c-.007813 3.359375-2.726563 6.078125-6.085938 6.089844h-14.46875c-3.355469-.011719-6.078125-2.730469-6.082031-6.089844zm0 0"/><path d="m651.167969 764.746094c.03125 18.058594 14.664062 32.691406 32.722656 32.722656h14.46875c18.058594-.03125 32.695313-14.664062 32.722656-32.722656v-41.105469c-.027343-18.058594-14.664062-32.695313-32.722656-32.722656h-14.46875c-18.058594.027343-32.691406 14.664062-32.722656 32.722656zm26.636719-41.105469c.007812-3.363281 2.726562-6.078125 6.085937-6.085937h14.46875c3.351563.007812 6.078125 2.722656 6.082031 6.085937v41.105469c-.003906 3.359375-2.730468 6.078125-6.082031 6.089844h-14.46875c-3.359375-.011719-6.078125-2.730469-6.085937-6.089844zm0 0"/><path d="m304.855469 604.90625c.035156 18.070312 14.667969 32.703125 32.726562 32.734375h14.46875c18.058594-.03125 32.695313-14.664063 32.722657-32.734375v-41.097656c-.027344-18.0625-14.664063-32.703125-32.722657-32.726563h-14.46875c-18.058593.023438-32.691406 14.664063-32.726562 32.726563zm26.640625-41.097656c.007812-3.359375 2.726562-6.078125 6.085937-6.085938h14.46875c3.363281.007813 6.078125 2.726563 6.085938 6.085938v41.097656c-.007813 3.363281-2.722657 6.089844-6.085938 6.09375h-14.46875c-3.359375-.003906-6.078125-2.730469-6.085937-6.09375zm0 0"/><path d="m192.210938 637.640625c18.070312-.03125 32.699218-14.664063 32.734374-32.734375v-41.097656c-.035156-18.0625-14.664062-32.703125-32.734374-32.726563h-14.460938c-18.058594.023438-32.699219 14.664063-32.722656 32.726563v41.097656c.023437 18.070312 14.664062 32.703125 32.722656 32.734375zm-20.542969-32.734375v-41.097656c.003906-3.359375 2.726562-6.078125 6.082031-6.085938h14.460938c3.363281.007813 6.078124 2.726563 6.09375 6.085938v41.097656c-.015626 3.363281-2.730469 6.089844-6.09375 6.09375h-14.460938c-3.355469-.003906-6.078125-2.730469-6.082031-6.09375zm0 0"/><path d="m618.4375 531.082031h-14.464844c-18.058594.023438-32.695312 14.664063-32.71875 32.726563v41.097656c.023438 18.070312 14.660156 32.703125 32.71875 32.734375h14.464844c18.0625-.03125 32.699219-14.664063 32.730469-32.734375v-41.097656c-.03125-18.0625-14.667969-32.703125-32.730469-32.726563zm6.09375 73.824219c-.011719 3.363281-2.730469 6.089844-6.09375 6.09375h-14.464844c-3.359375-.003906-6.078125-2.730469-6.082031-6.09375v-41.097656c.003906-3.359375 2.722656-6.078125 6.082031-6.085938h14.464844c3.363281.007813 6.082031 2.726563 6.09375 6.085938zm0 0"/><path d="m352.050781 371.246094h-14.46875c-18.058593.03125-32.691406 14.664062-32.726562 32.730468v41.101563c.035156 18.058594 14.667969 32.695313 32.726562 32.722656h14.46875c18.058594-.027343 32.695313-14.664062 32.722657-32.722656v-41.101563c-.027344-18.066406-14.664063-32.699218-32.722657-32.730468zm6.085938 73.832031c-.007813 3.359375-2.722657 6.078125-6.085938 6.082031h-14.46875c-3.359375-.003906-6.078125-2.722656-6.085937-6.082031v-41.101563c.007812-3.359374 2.726562-6.085937 6.085937-6.089843h14.46875c3.363281.003906 6.078125 2.730469 6.085938 6.089843zm0 0"/><path d="m458.601562 371.246094h-14.457031c-18.066406.03125-32.703125 14.664062-32.730469 32.730468v41.101563c.027344 18.058594 14.664063 32.695313 32.730469 32.722656h14.457031c18.066407-.027343 32.703126-14.664062 32.730469-32.722656v-41.101563c-.027343-18.066406-14.664062-32.699218-32.730469-32.730468zm6.089844 73.832031c-.003906 3.359375-2.726562 6.078125-6.089844 6.082031h-14.457031c-3.359375-.003906-6.085937-2.722656-6.09375-6.082031v-41.101563c.007813-3.359374 2.734375-6.085937 6.09375-6.089843h14.457031c3.363282.003906 6.085938 2.730469 6.089844 6.089843zm0 0"/><path d="m458.601562 637.640625c18.066407-.03125 32.703126-14.664063 32.730469-32.734375v-41.097656c-.027343-18.0625-14.664062-32.703125-32.730469-32.726563h-14.457031c-18.066406.023438-32.703125 14.664063-32.730469 32.726563v41.097656c.027344 18.070312 14.664063 32.703125 32.730469 32.734375zm-20.550781-32.734375v-41.097656c.007813-3.359375 2.734375-6.078125 6.09375-6.085938h14.457031c3.363282.007813 6.085938 2.726563 6.089844 6.085938v41.097656c-.003906 3.363281-2.726562 6.089844-6.089844 6.09375h-14.457031c-3.359375-.003906-6.085937-2.730469-6.09375-6.09375zm0 0"/><path d="m344.816406 704.234375v79.921875c0 7.351562 5.96875 13.3125 13.320313 13.3125 7.359375 0 13.320312-5.960938 13.320312-13.3125v-79.921875c0-7.355469-5.960937-13.316406-13.320312-13.316406-7.351563 0-13.320313 5.960937-13.320313 13.316406zm0 0"/><path d="m105.066406 784.15625v-79.921875c0-7.355469-5.960937-13.316406-13.324218-13.316406-7.347657 0-13.316407 5.960937-13.316407 13.316406v79.921875c0 7.351562 5.96875 13.3125 13.316407 13.3125 7.363281 0 13.324218-5.960938 13.324218-13.3125zm0 0"/><path d="m611.207031 704.234375v79.921875c0 7.351562 5.960938 13.3125 13.324219 13.3125 7.351562 0 13.3125-5.960938 13.3125-13.3125v-79.921875c0-7.355469-5.960938-13.316406-13.3125-13.316406-7.363281 0-13.324219 5.960937-13.324219 13.316406zm0 0"/><path d="m251.582031 624.316406c0 7.363282 5.960938 13.324219 13.3125 13.324219 7.363281 0 13.328125-5.960937 13.328125-13.324219v-79.917968c0-7.351563-5.964844-13.316407-13.328125-13.316407-7.351562 0-13.3125 5.964844-13.3125 13.316407zm0 0"/><path d="m264.894531 477.800781c7.363281 0 13.328125-5.960937 13.328125-13.320312v-79.910157c0-7.363281-5.964844-13.324218-13.328125-13.324218-7.351562 0-13.3125 5.960937-13.3125 13.324218v79.910157c0 7.359375 5.960938 13.320312 13.3125 13.320312zm0 0"/><path d="m531.292969 477.800781c7.351562 0 13.320312-5.960937 13.320312-13.320312v-79.910157c0-7.363281-5.96875-13.324218-13.320312-13.324218-7.363281 0-13.324219 5.960937-13.324219 13.324218v79.910157c0 7.359375 5.960938 13.320312 13.324219 13.320312zm0 0"/><path d="m517.96875 624.316406c0 7.363282 5.960938 13.324219 13.324219 13.324219 7.351562 0 13.320312-5.960937 13.320312-13.324219v-79.917968c0-7.351563-5.96875-13.316407-13.320312-13.316407-7.363281 0-13.324219 5.964844-13.324219 13.316407zm0 0"/><path d="m398.097656 78.214844c-58.851562 0-106.5625 47.710937-106.5625 106.558594 0 58.855468 47.710938 106.558593 106.5625 106.558593 58.851563 0 106.554688-47.703125 106.554688-106.558593-.066406-58.824219-47.738282-106.492188-106.554688-106.558594zm0 186.476562c-44.136718 0-79.921875-35.78125-79.921875-79.917968 0-44.136719 35.785157-79.921876 79.921875-79.921876 44.136719 0 79.914063 35.785157 79.914063 79.921876-.042969 44.121093-35.792969 79.875-79.914063 79.917968zm0 0"/><path d="m411.414062 224.730469c0 7.359375-5.960937 13.320312-13.316406 13.320312-7.359375 0-13.324218-5.960937-13.324218-13.320312 0-7.351563 5.964843-13.316407 13.324218-13.316407 7.355469 0 13.316406 5.964844 13.316406 13.316407zm0 0"/><path d="m398.097656 131.496094c-7.359375 0-13.324218 5.964844-13.324218 13.316406v26.640625c0 7.359375 5.964843 13.320313 13.324218 13.320313 7.355469 0 13.316406-5.960938 13.316406-13.320313v-26.640625c0-7.351562-5.960937-13.316406-13.316406-13.316406zm0 0"/></svg>