<svg height="512" viewBox="0 0 60 60" width="512" xmlns="http://www.w3.org/2000/svg"><g id="034---Castle"><path id="Shape" d="m58 10h-2c-1.1045695 0-2 .8954305-2 2v2h-2v-2c0-1.1045695-.8954305-2-2-2v-2h7c1.1045695 0 2-.8954305 2-2v-3c0-1.1045695-.8954305-2-2-2h-7c0-.55228475-.4477153-1-1-1s-1 .44771525-1 1v9c-1.1045695 0-2 .8954305-2 2v2h-2v-2c0-1.1045695-.8954305-2-2-2h-2c-1.1045695 0-2 .8954305-2 2v6.171c-.0025349.7964142.3140402 1.5606602.879 2.122l3.121 3.121v1.586h-4c-1.1045695 0-2 .8954305-2 2v2h-2v-2c0-1.1045695-.8954305-2-2-2h-4c-1.1045695 0-2 .8954305-2 2v2h-2v-2c0-1.1045695-.8954305-2-2-2h-4v-1.586l3.121-3.121c.5649598-.5613398.8815349-1.3255858.879-2.122v-6.171c0-1.1045695-.8954305-2-2-2h-2c-1.1045695 0-2 .8954305-2 2v2h-2v-2c0-1.1045695-.8954305-2-2-2v-2h7c1.1045695 0 2-.8954305 2-2v-3c0-1.1045695-.8954305-2-2-2h-7c0-.55228475-.4477153-1-1-1s-1 .44771525-1 1v9c-1.1045695 0-2 .8954305-2 2v2h-2v-2c0-1.1045695-.8954305-2-2-2h-2c-1.1045695 0-2 .8954305-2 2v6.171c-.00253492.7964142.31404016 1.5606602.879 2.122l3.121 3.121v33.586c0 1.6568542 1.34314575 3 3 3h46c1.6568542 0 3-1.3431458 3-3v-33.586l3.121-3.121c.5649598-.5613398.8815349-1.3255858.879-2.122v-6.171c0-1.1045695-.8954305-2-2-2zm-8-7h7v3h-7zm-38 0h7v3h-7zm-10 9h2v2c0 1.1045695.8954305 2 2 2h2c1.1045695 0 2-.8954305 2-2v-2h2v2c0 1.1045695.8954305 2 2 2h2c1.1045695 0 2-.8954305 2-2v-2h2v6h-18zm14 22h-6c-.55228475 0-1 .4477153-1 1s.44771525 1 1 1h6v13h-6c-.55228475 0-1 .4477153-1 1s.44771525 1 1 1h6v7h-9c-.55228475 0-1-.4477153-1-1v-13h6c.5522847 0 1-.4477153 1-1s-.4477153-1-1-1h-6v-13h6c.5522847 0 1-.4477153 1-1s-.4477153-1-1-1h-6v-3h10zm.586-12h-11.172l-2-2h15.172zm12.414 28h-2c-.5522847 0-1 .4477153-1 1s.4477153 1 1 1h2v6h-5v-11c.0054296-2.9246159 2.1166966-5.4201335 5-5.91zm7 8h-5v-6h2c.5522847 0 1-.4477153 1-1s-.4477153-1-1-1h-2v-8.91c2.8833034.4898665 4.9945704 2.9853841 5 5.91zm6 0h-4v-11c0-4.418278-3.581722-8-8-8s-8 3.581722-8 8v11h-4v-31h4v2c0 1.1045695.8954305 2 2 2h2c1.1045695 0 2-.8954305 2-2v-2h4v2c0 1.1045695.8954305 2 2 2h2c1.1045695 0 2-.8954305 2-2v-2h4zm12-24h-6c-.5522847 0-1 .4477153-1 1s.4477153 1 1 1h6v13h-6c-.5522847 0-1 .4477153-1 1s.4477153 1 1 1h6v6c0 .5522847-.4477153 1-1 1h-9v-14h6c.5522847 0 1-.4477153 1-1s-.4477153-1-1-1h-6v-13h6c.5522847 0 1-.4477153 1-1s-.4477153-1-1-1h-6v-3h10zm.586-12h-11.172l-2-2h15.172zm3.414-4h-18v-6h2v2c0 1.1045695.8954305 2 2 2h2c1.1045695 0 2-.8954305 2-2v-2h2v2c0 1.1045695.8954305 2 2 2h2c1.1045695 0 2-.8954305 2-2v-2h2z"/><path id="Shape" d="m23 33c-1.6568542 0-3 1.3431458-3 3v1c0 1.1045695.8954305 2 2 2h2c1.1045695 0 2-.8954305 2-2v-1c0-1.6568542-1.3431458-3-3-3zm-1 4v-1c0-.5522847.4477153-1 1-1s1 .4477153 1 1v1z"/><path id="Shape" d="m34 36v1c0 1.1045695.8954305 2 2 2h2c1.1045695 0 2-.8954305 2-2v-1c0-1.6568542-1.3431458-3-3-3s-3 1.3431458-3 3zm4 0v1h-2v-1c0-.5522847.4477153-1 1-1s1 .4477153 1 1z"/></g></svg>