<svg height="682.66669pt" viewBox="-21 -21 682.66669 682.66669" width="682.66669pt" xmlns="http://www.w3.org/2000/svg"><path d="m21.332031 640h149.335938c1.464843-.003906 2.921875-.3125 4.261719-.90625 1.8125.574219 3.695312.875 5.59375.90625h108.300781c11.542969-.242188 20.714843-9.785156 20.507812-21.332031v-341.332031c-.027343-7.769532-4.289062-14.910157-11.113281-18.617188-4.253906-27.667969-25.40625-49.699219-52.886719-55.070312v-54.316407c0-5.890625-4.777343-10.664062-10.664062-10.664062-5.894531 0-10.667969 4.773437-10.667969 10.664062v54.316407c-27.476562 5.371093-48.632812 27.402343-52.886719 55.070312-6.824219 3.707031-11.082031 10.847656-11.113281 18.617188v42.664062h-21.332031v-21.332031c0-11.785157-9.550781-21.332031-21.332031-21.332031h-53.335938c-11.78125 0-21.335938 9.546874-21.335938 21.332031v21.332031h-21.332031c-11.78125 0-21.332031 9.550781-21.332031 21.332031v277.335938c0 11.78125 9.550781 21.332031 21.332031 21.332031zm160-21.332031v-341.332031h106.667969l.824219 341.332031zm53.335938-394.667969c19.203125.507812 35.832031 13.492188 40.980469 32h-81.960938c5.144531-18.507812 21.773438-31.492188 40.980469-32zm-170.667969 74.667969h53.335938v21.332031h-53.335938zm-42.667969 42.664062h138.667969v277.335938h-138.667969zm0 0"/><path d="m352 640h266.667969c11.78125 0 21.332031-9.550781 21.332031-21.332031v-213.335938c0-.210937-.109375-.394531-.117188-.597656-.058593-1.003906-.257812-1.996094-.59375-2.941406-.101562-.277344-.152343-.558594-.269531-.820313-.464843-1.058594-1.09375-2.042968-1.867187-2.902344l-33.792969-36.386718c-5.664063-6.132813-13.625-9.636719-21.972656-9.683594h-42.902344c-8.285156.070312-16.171875 3.542969-21.824219 9.601562l-15.328125 16.5v-36.769531c0-11.78125-9.550781-21.332031-21.332031-21.332031v-128c-.023438-7.703125-4.214844-14.789062-10.957031-18.519531.160156-.925781.257812-1.871094.289062-2.8125v-85.335938c0-1.429687-.148437-2.863281-.433593-4.269531 6.40625-5.558594 7.1875-15.222656 1.757812-21.746094l-36.519531-45.367187c-3.972657-4.941407-9.941407-7.855469-16.28125-7.941407-6.292969.054688-12.277344 2.738282-16.511719 7.398438l-39.179688 45.496094c-5.617187 6.355468-5.140624 16.035156 1.070313 21.808594-.359375 1.519531-.546875 3.070312-.570313 4.621093v85.335938c.035157.941406.128907 1.886719.289063 2.8125-6.738281 3.730469-10.929687 10.816406-10.953125 18.519531v128c-11.78125 0-21.332031 9.550781-21.332031 21.332031v277.335938c0 11.78125 9.550781 21.332031 21.332031 21.332031zm53.332031-21.332031v-42.667969h21.332031v42.667969zm96 0v-202.667969h117.335938v202.667969zm30.933594-242.539063c1.601563-1.75 3.851563-2.761718 6.21875-2.792968h42.902344c2.421875.023437 4.722656 1.0625 6.339843 2.867187l17.148438 18.464844h-89.800781zm-148.265625-290.796875h64v85.335938h-64zm33.503906-57.992187 29.535156 36.660156h-61.105468zm-44.167968 164.660156h85.332031v128h-85.332031zm-21.335938 149.332031h128v277.335938h-32v-42.667969c0-11.78125-9.554688-21.332031-21.335938-21.332031h-21.332031c-11.78125 0-21.332031 9.550781-21.332031 21.332031v42.667969h-32zm0 0"/><path d="m53.335938 149.332031h122.664062c26.507812 0 48-21.488281 48-48 0-26.507812-21.492188-47.996093-48-47.996093-1.867188 0-3.734375.109374-5.589844.339843-2.386718-28.246093-24.652344-50.730469-52.875-53.402343-28.222656-2.671876-54.308594 15.242187-61.949218 42.542968-.746094-.035156-1.503907-.152344-2.25-.152344-29.460938 0-53.335938 23.878907-53.335938 53.335938 0 29.453125 23.875 53.332031 53.335938 53.332031zm8.0625-84.261719c.328124.089844.664062 0 1.003906.070313.316406.113281.644531.207031.976562.28125.386719-.027344.765625-.074219 1.144532-.144531.691406 0 1.378906-.074219 2.058593-.207032.707031-.15625 1.402344-.386718 2.054688-.695312.539062-.25 1.050781-.542969 1.539062-.875.636719-.429688 1.214844-.929688 1.730469-1.492188.394531-.429687.75-.890624 1.0625-1.378906.433594-.644531.796875-1.332031 1.070312-2.058594.171876-.3125.320313-.640624.457032-.972656.09375-.328125 0-.648437.074218-.976562.074219-.332032.242188-.644532.277344-1.003906 1.417969-19.429688 17.671875-34.429688 37.152344-34.285157 20.617188 0 37.332031 16.714844 37.332031 37.335938 0 1.0625-.222656 2.027343-.308593 3.050781-11.726563 7.9375-19.3125 20.6875-20.695313 34.78125-.070313.484375-.117187.964844-.125 1.453125 0 .171875-.097656.320313-.097656.5 0 5.890625 4.777343 10.667969 10.667969 10.667969h.109374c1.394532-.003906 2.78125-.285156 4.070313-.820313.324219-.140625.566406-.394531.875-.566406.902344-.445313 1.738281-1.015625 2.484375-1.683594.179688-.226562.347656-.457031.503906-.695312.726563-.789063 1.328125-1.683594 1.78125-2.65625.09375-.222657.109375-.492188.191406-.726563.375-.910156.625-1.859375.738282-2.835937.703125-9.246094 6.222656-17.433594 14.527344-21.558594 3.683593-1.933594 7.785156-2.933594 11.945312-2.910156 14.726562 0 26.664062 11.9375 26.664062 26.664062 0 14.726563-11.9375 26.667969-26.664062 26.667969h-122.664062c-12.441407.050781-23.785157-7.117188-29.082032-18.371094-5.300781-11.253906-3.59375-24.558594 4.371094-34.117187 7.96875-9.554688 20.746094-13.632813 32.773438-10.441407zm0 0"/><path d="m581.332031 117.335938c32.402344 0 58.667969-26.265626 58.667969-58.667969 0-32.402344-26.265625-58.667969-58.667969-58.667969-32.402343 0-58.667969 26.265625-58.667969 58.667969.035157 32.386719 26.28125 58.632812 58.667969 58.667969zm0-96.003907c20.621094 0 37.335938 16.714844 37.335938 37.335938 0 20.621093-16.714844 37.332031-37.335938 37.332031-20.621093 0-37.332031-16.710938-37.332031-37.332031 0-20.621094 16.710938-37.335938 37.332031-37.335938zm0 0"/><path d="m213.335938 298.667969c-5.894532 0-10.671876 4.773437-10.671876 10.664062v21.335938c0 5.890625 4.777344 10.664062 10.671876 10.664062 5.886718 0 10.664062-4.773437 10.664062-10.664062v-21.335938c0-5.890625-4.777344-10.664062-10.664062-10.664062zm0 0"/><path d="m256 298.667969c-5.890625 0-10.667969 4.773437-10.667969 10.664062v21.335938c0 5.890625 4.777344 10.664062 10.667969 10.664062s10.664062-4.773437 10.664062-10.664062v-21.335938c0-5.890625-4.773437-10.664062-10.664062-10.664062zm0 0"/><path d="m213.335938 362.664062c-5.894532 0-10.671876 4.777344-10.671876 10.671876v21.332031c0 5.886719 4.777344 10.664062 10.671876 10.664062 5.886718 0 10.664062-4.777343 10.664062-10.664062v-21.332031c0-5.894532-4.777344-10.671876-10.664062-10.671876zm0 0"/><path d="m256 362.664062c-5.890625 0-10.667969 4.777344-10.667969 10.671876v21.332031c0 5.886719 4.777344 10.664062 10.667969 10.664062s10.664062-4.777343 10.664062-10.664062v-21.332031c0-5.894532-4.773437-10.671876-10.664062-10.671876zm0 0"/><path d="m213.335938 426.664062c-5.894532 0-10.671876 4.777344-10.671876 10.671876v21.332031c0 5.886719 4.777344 10.664062 10.671876 10.664062 5.886718 0 10.664062-4.777343 10.664062-10.664062v-21.332031c0-5.894532-4.777344-10.671876-10.664062-10.671876zm0 0"/><path d="m256 426.664062c-5.890625 0-10.667969 4.777344-10.667969 10.671876v21.332031c0 5.886719 4.777344 10.664062 10.667969 10.664062s10.664062-4.777343 10.664062-10.664062v-21.332031c0-5.894532-4.773437-10.671876-10.664062-10.671876zm0 0"/><path d="m213.335938 490.667969c-5.894532 0-10.671876 4.777343-10.671876 10.664062v21.332031c0 5.894532 4.777344 10.671876 10.671876 10.671876 5.886718 0 10.664062-4.777344 10.664062-10.671876v-21.332031c0-5.886719-4.777344-10.664062-10.664062-10.664062zm0 0"/><path d="m256 490.667969c-5.890625 0-10.667969 4.777343-10.667969 10.664062v21.332031c0 5.894532 4.777344 10.671876 10.667969 10.671876s10.664062-4.777344 10.664062-10.671876v-21.332031c0-5.886719-4.773437-10.664062-10.664062-10.664062zm0 0"/><path d="m213.335938 554.667969c-5.894532 0-10.671876 4.777343-10.671876 10.664062v21.332031c0 5.894532 4.777344 10.671876 10.671876 10.671876 5.886718 0 10.664062-4.777344 10.664062-10.671876v-21.332031c0-5.886719-4.777344-10.664062-10.664062-10.664062zm0 0"/><path d="m256 554.667969c-5.890625 0-10.667969 4.777343-10.667969 10.664062v21.332031c0 5.894532 4.777344 10.671876 10.667969 10.671876s10.664062-4.777344 10.664062-10.671876v-21.332031c0-5.886719-4.773437-10.664062-10.664062-10.664062zm0 0"/><path d="m384 405.332031c5.890625 0 10.667969-4.777343 10.667969-10.664062v-21.332031c0-5.894532-4.777344-10.671876-10.667969-10.671876s-10.664062 4.777344-10.664062 10.671876v21.332031c0 5.886719 4.773437 10.664062 10.664062 10.664062zm0 0"/><path d="m416 256c-5.890625 0-10.667969 4.777344-10.667969 10.664062v21.335938c0 5.890625 4.777344 10.667969 10.667969 10.667969s10.664062-4.777344 10.664062-10.667969v-21.335938c0-5.886718-4.773437-10.664062-10.664062-10.664062zm0 0"/><path d="m416 106.664062c-5.890625 0-10.667969 4.777344-10.667969 10.671876v21.332031c0 5.886719 4.777344 10.664062 10.667969 10.664062s10.664062-4.777343 10.664062-10.664062v-21.332031c0-5.894532-4.773437-10.671876-10.664062-10.671876zm0 0"/><path d="m448 405.332031c5.890625 0 10.667969-4.777343 10.667969-10.664062v-21.332031c0-5.894532-4.777344-10.671876-10.667969-10.671876s-10.664062 4.777344-10.664062 10.671876v21.332031c0 5.886719 4.773437 10.664062 10.664062 10.664062zm0 0"/><path d="m384 469.332031c5.890625 0 10.667969-4.777343 10.667969-10.664062v-21.332031c0-5.894532-4.777344-10.671876-10.667969-10.671876s-10.664062 4.777344-10.664062 10.671876v21.332031c0 5.886719 4.773437 10.664062 10.664062 10.664062zm0 0"/><path d="m448 469.332031c5.890625 0 10.667969-4.777343 10.667969-10.664062v-21.332031c0-5.894532-4.777344-10.671876-10.667969-10.671876s-10.664062 4.777344-10.664062 10.671876v21.332031c0 5.886719 4.773437 10.664062 10.664062 10.664062zm0 0"/><path d="m384 533.335938c5.890625 0 10.667969-4.777344 10.667969-10.671876v-21.332031c0-5.886719-4.777344-10.664062-10.667969-10.664062s-10.664062 4.777343-10.664062 10.664062v21.332031c0 5.894532 4.773437 10.671876 10.664062 10.671876zm0 0"/><path d="m448 533.335938c5.890625 0 10.667969-4.777344 10.667969-10.671876v-21.332031c0-5.886719-4.777344-10.664062-10.667969-10.664062s-10.664062 4.777343-10.664062 10.664062v21.332031c0 5.894532 4.773437 10.671876 10.664062 10.671876zm0 0"/><path d="m544 437.335938h-10.664062c-5.894532 0-10.671876 4.773437-10.671876 10.664062s4.777344 10.667969 10.671876 10.667969h10.664062c5.890625 0 10.667969-4.777344 10.667969-10.667969s-4.777344-10.664062-10.667969-10.664062zm0 0"/><path d="m544 480h-10.664062c-5.894532 0-10.671876 4.773438-10.671876 10.667969 0 5.890625 4.777344 10.664062 10.671876 10.664062h10.664062c5.890625 0 10.667969-4.773437 10.667969-10.664062 0-5.894531-4.777344-10.667969-10.667969-10.667969zm0 0"/><path d="m544 522.664062h-10.664062c-5.894532 0-10.671876 4.777344-10.671876 10.671876 0 5.886718 4.777344 10.664062 10.671876 10.664062h10.664062c5.890625 0 10.667969-4.777344 10.667969-10.664062 0-5.894532-4.777344-10.671876-10.667969-10.671876zm0 0"/><path d="m544 565.332031h-10.664062c-5.894532 0-10.671876 4.777344-10.671876 10.667969s4.777344 10.664062 10.671876 10.664062h10.664062c5.890625 0 10.667969-4.773437 10.667969-10.664062s-4.777344-10.667969-10.667969-10.667969zm0 0"/><path d="m85.332031 448h-30.933593c-5.886719 0-10.664063 4.773438-10.664063 10.667969 0 5.886719 4.777344 10.664062 10.664063 10.664062h30.933593c5.894531 0 10.667969-4.777343 10.667969-10.664062 0-5.894531-4.773438-10.667969-10.667969-10.667969zm0 0"/><path d="m85.332031 405.332031h-30.933593c-5.886719 0-10.664063 4.777344-10.664063 10.667969s4.777344 10.664062 10.664063 10.664062h30.933593c5.894531 0 10.667969-4.773437 10.667969-10.664062s-4.773438-10.667969-10.667969-10.667969zm0 0"/><path d="m85.332031 362.664062h-30.933593c-5.886719 0-10.664063 4.777344-10.664063 10.671876 0 5.886718 4.777344 10.664062 10.664063 10.664062h30.933593c5.894531 0 10.667969-4.777344 10.667969-10.664062 0-5.894532-4.773438-10.671876-10.667969-10.671876zm0 0"/><path d="m85.332031 490.667969h-30.933593c-5.886719 0-10.664063 4.777343-10.664063 10.664062 0 5.894531 4.777344 10.667969 10.664063 10.667969h30.933593c5.894531 0 10.667969-4.773438 10.667969-10.667969 0-5.886719-4.773438-10.664062-10.667969-10.664062zm0 0"/><path d="m85.332031 533.335938h-30.933593c-5.886719 0-10.664063 4.773437-10.664063 10.664062s4.777344 10.667969 10.664063 10.667969h30.933593c5.894531 0 10.667969-4.777344 10.667969-10.667969s-4.773438-10.664062-10.667969-10.664062zm0 0"/><path d="m85.332031 576h-30.933593c-5.886719 0-10.664063 4.777344-10.664063 10.664062 0 5.894532 4.777344 10.671876 10.664063 10.671876h30.933593c5.894531 0 10.667969-4.777344 10.667969-10.671876 0-5.886718-4.773438-10.664062-10.667969-10.664062zm0 0"/><path d="m594.238281 440.425781c-4.277343-3.945312-10.871093-3.945312-15.144531 0-.988281 1.003907-1.75 2.199219-2.238281 3.519531-.546875 1.285157-.839844 2.660157-.855469 4.054688.039062 2.824219 1.144531 5.53125 3.09375 7.570312 1.019531.96875 2.214844 1.730469 3.519531 2.242188 1.285157.546875 2.660157.835938 4.050781.855469 2.828126-.042969 5.527344-1.148438 7.574219-3.097657.941407-1.035156 1.699219-2.226562 2.242188-3.515624 1.136719-2.582032 1.136719-5.527344 0-8.109376-.488281-1.320312-1.253907-2.515624-2.242188-3.519531zm0 0"/><path d="m592.640625 481.8125c-.59375-.402344-1.238281-.722656-1.921875-.957031-.601562-.308594-1.25-.527344-1.921875-.640625-3.507813-.71875-7.152344.363281-9.703125 2.878906-.964844 1.015625-1.726562 2.214844-2.238281 3.515625-.546875 1.285156-.839844 2.664063-.855469 4.058594.023438.714843.09375 1.425781.210938 2.128906.117187.671875.332031 1.320313.644531 1.925781.230469.675782.550781 1.324219.957031 1.917969l1.28125 1.601563c2.042969 1.945312 4.75 3.050781 7.570312 3.089843.71875-.023437 1.429688-.089843 2.132813-.214843.671875-.109376 1.320313-.332032 1.921875-.640626.683594-.226562 1.328125-.554687 1.921875-.953124l1.597656-1.28125 1.277344-1.601563c.40625-.59375.730469-1.242187.964844-1.917969.308593-.605468.519531-1.253906.636719-1.925781.117187-.703125.191406-1.414063.21875-2.128906-.046876-2.824219-1.148438-5.53125-3.097657-7.574219-.503906-.457031-1.039062-.886719-1.597656-1.28125zm0 0"/><path d="m592.640625 524.484375c-.59375-.40625-1.238281-.730469-1.921875-.964844-.601562-.308593-1.25-.519531-1.921875-.636719-3.507813-.699218-7.140625.375-9.703125 2.878907-4.140625 4.175781-4.125 10.914062.042969 15.0625 4.160156 4.152343 10.898437 4.152343 15.0625 0 4.164062-4.148438 4.179687-10.886719.039062-15.0625-.503906-.457031-1.039062-.886719-1.597656-1.277344zm0 0"/><path d="m579.09375 568.429688c-4.140625 4.171874-4.125 10.910156.042969 15.0625 4.160156 4.148437 10.898437 4.148437 15.0625 0 4.164062-4.152344 4.179687-10.890626.039062-15.0625-4.285156-3.921876-10.859375-3.921876-15.144531 0zm0 0"/><path d="m138.667969 373.335938c0 5.886718-4.777344 10.664062-10.667969 10.664062s-10.664062-4.777344-10.664062-10.664062c0-5.894532 4.773437-10.671876 10.664062-10.671876s10.667969 4.777344 10.667969 10.671876zm0 0"/><path d="m426.664062 224c0 5.890625-4.773437 10.667969-10.664062 10.667969s-10.667969-4.777344-10.667969-10.667969 4.777344-10.664062 10.667969-10.664062 10.664062 4.773437 10.664062 10.664062zm0 0"/><path d="m138.667969 416c0 5.890625-4.777344 10.664062-10.667969 10.664062s-10.664062-4.773437-10.664062-10.664062 4.773437-10.667969 10.664062-10.667969 10.667969 4.777344 10.667969 10.667969zm0 0"/><path d="m138.667969 458.667969c0 5.886719-4.777344 10.664062-10.667969 10.664062s-10.664062-4.777343-10.664062-10.664062c0-5.894531 4.773437-10.667969 10.664062-10.667969s10.667969 4.773438 10.667969 10.667969zm0 0"/><path d="m138.667969 501.332031c0 5.894531-4.777344 10.667969-10.667969 10.667969s-10.664062-4.773438-10.664062-10.667969c0-5.886719 4.773437-10.664062 10.664062-10.664062s10.667969 4.777343 10.667969 10.664062zm0 0"/><path d="m138.667969 544c0 5.890625-4.777344 10.667969-10.667969 10.667969s-10.664062-4.777344-10.664062-10.667969 4.773437-10.664062 10.664062-10.664062 10.667969 4.773437 10.667969 10.664062zm0 0"/><path d="m138.667969 586.664062c0 5.894532-4.777344 10.671876-10.667969 10.671876s-10.664062-4.777344-10.664062-10.671876c0-5.886718 4.773437-10.664062 10.664062-10.664062s10.667969 4.777344 10.667969 10.664062zm0 0"/></svg>