<svg xmlns="http://www.w3.org/2000/svg" width="25" height="26.089" viewBox="0 0 25 26.089"><defs><style>.a{fill-rule:evenodd;}</style></defs><path class="a" d="M24.206,15.575c-1.86.511-1.928.622-1.465,2.381,1.43,5.423,5.643,8.684,9.37,7.253,1.251-.48.472-1.249-1.266-1.249-2.934,0-4.478-1.09-5.839-4.124-1.165-2.6-1.162-2.63.217-3,4.669-1.263,8.079.253,8.414,3.741l.143,1.491L31.81,20.524c-2.427-1.9-4.409-2.975-5.035-2.735-.9.345-.461.982,1.427,2.081,3.872,2.252,6.065,4.944,6.065,7.443v1.182l-3.911.079-3.911.079v2.275c0,2.1.046,2.282.6,2.361.532.076.7.545,1.437,3.982l.834,3.9H40.665l.849-3.9c.731-3.359.928-3.911,1.423-3.982.522-.075.575-.291.575-2.358V28.652l-3.939-.079-3.939-.079.19-.774c.449-1.828,2.457-3.536,5.64-4.8,1.6-.636,1.918-.868,1.848-1.357-.117-.809-1-.676-3.567.54-2.234,1.057-2.339,1.034-1.506-.332,1.091-1.789,2.71-2.3,5.709-1.792,2.14.361,2.178.4,1.592,1.806a5.5,5.5,0,0,1-6.061,3.761c-2.455-.222-3.119.586-1.044,1.271,3.691,1.218,7.321-1.04,8.792-5.469.572-1.721.361-2.042-1.667-2.53-5.26-1.265-8.533.243-9.3,4.284a5.981,5.981,0,0,1-.541,1.795c-.375.375-1.108-1.3-.853-1.951,2.094-5.349-3.624-9.3-10.659-7.372M42.232,30.927v1h-14.5V29.932h14.5v1M40.794,33.7c-.008.2-.3,1.635-.645,3.2l-.63,2.844-4.453.078c-4.057.071-4.466.033-4.605-.427-.145-.478-1.312-5.787-1.312-5.966,0-.046,2.624-.084,5.83-.084,4.483,0,5.827.082,5.815.356" transform="translate(-22.501 -15.077)"/></svg>