<svg xmlns="http://www.w3.org/2000/svg" width="25" height="34.617" viewBox="0 0 25 34.617"><defs><style>.a{fill-rule:evenodd;}</style></defs><path class="a" d="M70.887,16.719,70,17.437V48.686l.856.856c.849.849.953.857,12.5.966L95,50.617v-1.91H83.937c-11.96,0-12.8-.135-11.855-1.906.37-.692.908-.726,11.653-.726H95V44.2H83.937c-11.96,0-12.8-.135-11.855-1.906.37-.692.908-.726,11.653-.726H95V16H83.387c-10.873,0-11.669.046-12.5.719M93.12,28.583V39.662l-10.714.105-10.715.105v-10.5C71.692,16,70.259,17.5,83.028,17.5H93.12V28.583M74.407,19.969c-.923.647-1.164,2.985-.446,4.327.477.891,15.96,1.145,16.829.276.667-.667.569-3.888-.14-4.6-.872-.872-15-.877-16.243-.006M89.361,22.2v.94H75.451v-1.88h13.91v.94" transform="translate(-70 -16)"/></svg>