<svg xmlns="http://www.w3.org/2000/svg" width="25" height="33.551" viewBox="0 0 25 33.551"><defs><style>.a{fill-rule:evenodd;}</style></defs><path class="a" d="M81.931,22.8c-2.42.391-3.469,3.874-1.7,5.643,3.014,3.014,7.417-.287,5.452-4.088a5.723,5.723,0,0,0-.653-1.1c-.047,0-.586-.132-1.2-.293a5.651,5.651,0,0,0-1.9-.166m7.037.858c-2.234.832-2.1,5.492.211,7.108.76.532,1.688,3.275,1.244,3.675-1.379,1.243-3.962.613-6.194-1.51-2.787-2.653-3.652-3.118-5.24-2.82-4.048.759-6.038,9.173-3.557,15.035L76.6,47.9,74.179,50.4c-3,3.1-2.884,5.921.236,5.921,1.771,0,7.512-6.41,7.281-8.13l-.2-1.481,1.213.579c1.129.538,1.259.8,1.879,3.751.884,4.211,1.8,5.136,4.067,4.1,1.48-.674,1.347-3.933-.4-9.675a12.978,12.978,0,0,0-3.516-2.554c-3.334-1.924-3.558-2.212-3.087-3.97l.226-.844,1.689.99,1.688.99,3.662-.467c4.429-.564,6-2.069,4.243-4.067a6.861,6.861,0,0,1-.744-5.681c1.5-2.9-.879-7.168-3.453-6.21M84.33,26.012c.344,1.736-2.251,2.368-3,.73-.392-.86-.342-1.055.433-1.682a1.555,1.555,0,0,1,2.565.952m6.408.481c.413,1.086.176,2.708-.4,2.708-.5,0-1.121-1.284-1.121-2.329,0-1.658.94-1.894,1.516-.38M69.344,29.945c-1.064,1.176-.23,2.687,1.4,2.53,1.026-.1,1.223-.279,1.329-1.212.21-1.841-1.5-2.669-2.727-1.317m13.718,4.5,2.832,2.644,2.684-.4c2.748-.408,4.224-.038,2.47.619a8.144,8.144,0,0,1-7.226-.316,5.635,5.635,0,0,0-2.606-.965c-1.369.525-2.328,6.359-1.668,10.147l.43,2.469L77.1,51.536c-1.581,1.59-3.023,2.8-3.206,2.686s.854-1.428,2.3-2.923l2.635-2.718-.984-2.539c-1.951-5.031-2.075-5.5-1.867-7.038.463-3.437,2.411-7.2,3.726-7.2a15.328,15.328,0,0,1,3.351,2.644m4.2,15.027a15.962,15.962,0,0,1,.653,3.807c-.357.989-.893-.019-1.5-2.817-.79-3.647-1.137-4.175-3.464-5.265-1.244-.583-1.905-1.122-1.905-1.553,0-.548.458-.391,2.694.924l2.694,1.585.829,3.319" transform="translate(-68.869 -22.77)"/></svg>