<?xml version="1.0" encoding="iso-8859-1"?>
<!-- Generator: Adobe Illustrator 19.0.0, SVG Export Plug-In . SVG Version: 6.00 Build 0)  -->
<svg version="1.1" id="Capa_1" xmlns="http://www.w3.org/2000/svg" xmlns:xlink="http://www.w3.org/1999/xlink" x="0px" y="0px"
	 viewBox="0 0 60 60" style="enable-background:new 0 0 60 60;" xml:space="preserve">
<g>
	<g>
		<path d="M40,24h-1.09c-0.154-0.909-0.51-1.749-1.024-2.471l0.772-0.771c0.391-0.391,0.391-1.024,0-1.415s-1.023-0.39-1.414,0
			l-0.772,0.772C35.749,19.6,34.909,19.244,34,19.09V18c0-0.552-0.447-1-1-1s-1,0.448-1,1v1.09c-0.909,0.154-1.749,0.51-2.471,1.024
			l-0.772-0.772c-0.391-0.39-1.023-0.39-1.414,0s-0.391,1.024,0,1.415l0.772,0.771C27.6,22.251,27.244,23.091,27.09,24H26
			c-0.553,0-1,0.448-1,1s0.447,1,1,1h1.09c0.154,0.909,0.51,1.749,1.024,2.471l-0.772,0.771c-0.391,0.391-0.391,1.024,0,1.415
			c0.195,0.195,0.451,0.293,0.707,0.293s0.512-0.098,0.707-0.292l0.772-0.772c0.723,0.514,1.563,0.87,2.472,1.024V32
			c0,0.552,0.447,1,1,1s1-0.448,1-1v-1.09c0.909-0.154,1.749-0.51,2.471-1.024l0.772,0.772c0.195,0.195,0.451,0.292,0.707,0.292
			s0.512-0.098,0.707-0.293c0.391-0.391,0.391-1.024,0-1.415l-0.772-0.771C38.4,27.749,38.756,26.909,38.91,26H40
			c0.553,0,1-0.448,1-1S40.553,24,40,24z M33,29c-2.206,0-4-1.794-4-4s1.794-4,4-4s4,1.794,4,4S35.206,29,33,29z"/>
		<path d="M56,11c-1.005,0-1.914,0.385-2.618,1H47V9.553C47,8.146,45.854,7,44.447,7H15.5c-2.864,0-5.221,2.201-5.475,5H6.618
			C5.914,11.385,5.005,11,4,11c-2.206,0-4,1.794-4,4s1.794,4,4,4c1.005,0,1.914-0.385,2.618-1H10v10c0,0.552,0.447,1,1,1h8v23
			c0,0.552,0.447,1,1,1h26c0.553,0,1-0.448,1-1V18h6.382c0.703,0.615,1.612,1,2.618,1c2.206,0,4-1.794,4-4S58.206,11,56,11z M21,43
			h24v2H21V43z M21,41v-2h24v2H21z M15.5,9c0.231,0,0.457,0.025,0.675,0.068c0.073,0.014,0.142,0.041,0.214,0.06
			c0.142,0.038,0.284,0.076,0.418,0.13c0.08,0.033,0.155,0.075,0.232,0.114c0.117,0.058,0.234,0.116,0.343,0.186
			c0.076,0.049,0.147,0.106,0.219,0.16c0.099,0.075,0.197,0.152,0.288,0.237c0.067,0.063,0.129,0.131,0.192,0.199
			c0.083,0.091,0.162,0.185,0.234,0.284c0.055,0.075,0.106,0.152,0.155,0.231c0.065,0.105,0.124,0.214,0.177,0.327
			c0.04,0.084,0.079,0.168,0.112,0.255c0.046,0.119,0.082,0.243,0.115,0.368c0.023,0.089,0.048,0.176,0.064,0.267
			c0.006,0.036,0.006,0.075,0.011,0.112h-6.914C12.279,10.306,13.74,9,15.5,9z M2,15c0-1.103,0.897-2,2-2
			c0.535,0,1.018,0.214,1.377,0.557l0.101,0.112c0.165,0.184,0.347,0.46,0.446,0.815c0.009,0.032,0.022,0.061,0.029,0.093
			C5.982,14.708,6,14.849,6,15s-0.018,0.292-0.047,0.422c-0.007,0.032-0.021,0.062-0.029,0.093c-0.099,0.356-0.28,0.632-0.446,0.815
			l-0.101,0.112C5.018,16.786,4.535,17,4,17C2.897,17,2,16.103,2,15z M7.891,15.894c0.015-0.065,0.027-0.13,0.039-0.195
			C7.971,15.469,8,15.236,8,15s-0.029-0.469-0.071-0.698c-0.012-0.066-0.024-0.131-0.039-0.195C7.883,14.071,7.879,14.035,7.87,14
			H11h8v2h-8H7.87C7.879,15.965,7.883,15.929,7.891,15.894z M12,27v-9h7v9H12z M21,51v-4h24v4H21z M45,37H21v-9V18v-1v-4v-0.5V12
			h-0.025c-0.012-0.133-0.032-0.263-0.054-0.393c-0.007-0.042-0.011-0.084-0.019-0.125c-0.052-0.275-0.126-0.541-0.217-0.8
			c-0.017-0.048-0.034-0.095-0.052-0.143c-0.098-0.255-0.212-0.502-0.345-0.738c-0.02-0.036-0.042-0.069-0.063-0.104
			C20.078,9.453,19.92,9.218,19.74,9l0,0h24.708C44.752,9,45,9.248,45,9.553V12v6V37z M47,16v-2h5.13
			c-0.009,0.035-0.013,0.071-0.021,0.106c-0.015,0.065-0.027,0.13-0.039,0.195C52.029,14.531,52,14.764,52,15
			s0.029,0.469,0.071,0.698c0.012,0.066,0.024,0.131,0.039,0.195c0.008,0.035,0.011,0.071,0.021,0.106H47V16z M56,17
			c-0.535,0-1.018-0.214-1.377-0.557l-0.101-0.112c-0.165-0.184-0.347-0.46-0.446-0.815c-0.009-0.032-0.022-0.061-0.029-0.093
			C54.018,15.292,54,15.151,54,15s0.018-0.292,0.047-0.422c0.007-0.032,0.021-0.062,0.029-0.093c0.099-0.356,0.28-0.632,0.446-0.815
			l0.101-0.112C54.982,13.214,55.465,13,56,13c1.103,0,2,0.897,2,2S57.103,17,56,17z"/>
	</g>
</g>
<g>
</g>
<g>
</g>
<g>
</g>
<g>
</g>
<g>
</g>
<g>
</g>
<g>
</g>
<g>
</g>
<g>
</g>
<g>
</g>
<g>
</g>
<g>
</g>
<g>
</g>
<g>
</g>
<g>
</g>
</svg>
