<svg xmlns="http://www.w3.org/2000/svg" width="25" height="25.112" viewBox="0 0 25 25.112"><defs><style>.a{fill-rule:evenodd;}</style></defs><path class="a" d="M36,15.9a4.434,4.434,0,0,0-1.293,1.351c-.415.8-.012.607-11.5,5.565L18,25.057l.01,1.4a4.04,4.04,0,0,0,.753,2.524,4.43,4.43,0,0,1,.743,1.688c0,1.441,2.257,4.1,3.478,4.1.186,0,.48.277.654.616.747,1.456,2.893,3.218,3.917,3.218a6.108,6.108,0,0,1,1.747.834,5.451,5.451,0,0,0,2.53.89l1.189.056,3.48-8.08c1.914-4.444,3.609-8.182,3.768-8.306,3.061-2.4,3.575-5.1,1.413-7.418A4.867,4.867,0,0,0,36,15.9m4.638,1.521c1.326,1.2,1.117,3.991-.359,4.781-.57.305-3.871-2.543-4.219-3.641-.541-1.7,2.984-2.581,4.577-1.14m-6.614,2.566c-.64.5-1.37.72-1.37.412a6.848,6.848,0,0,1,1.917-.931c.075-.009-.171.225-.548.519m1.483,1.668c-.576.6-.839.716-1.118.484-.481-.4-.495-.373.514-1.011,1.184-.75,1.535-.444.6.527M31.555,21.3c-.01.585-1.99,1.463-2.392,1.061-.365-.365-.277-.47.787-.944,1.136-.506,1.613-.541,1.605-.117m5.488,1.96c-.494.694-.682.793-1,.527-.336-.279-.283-.444.354-1.109.986-1.029,1.481-.586.649.582m-9.208-.293c.454.5.349.595-3.039,2.693-5.135,3.181-4.683,3.02-5.175,1.843-.589-1.411-.649-1.358,3.727-3.271,2.18-.953,3.976-1.745,3.99-1.759a3.393,3.393,0,0,1,.5.494m4.935,1.419-.766.8-.634-.6c-.828-.778-.813-.838.382-1.521,1.512-.864,2.224.057,1.018,1.316m5.5.253c-.248.48-.516.808-.595.729s.078-.518.348-.976c.639-1.081.833-.887.247.247m-8,.762.731.763-3.657,3.65c-4.056,4.048-4.106,4.069-5.628,2.335-1.582-1.8-1.379-2.1,3.338-4.976,4.794-2.919,4.283-2.745,5.217-1.771m4.95-.358c.5.376.493.416-.091,1.361-.708,1.145-.742,1.153-1.569.376l-.637-.6.739-.771c.845-.882.87-.888,1.558-.367m1.663,2.829c-.547,1.309-.786,1.53-1.164,1.075-.236-.285-.147-.609.382-1.388.861-1.267,1.358-1.068.782.313m-3.407.957c0,.215-1.2,2.227-4.575,7.66l-.64,1.03-1.074-.548a6.389,6.389,0,0,1-1.822-1.528l-.747-.979,3.666-3.674,3.666-3.674.763.731a2.831,2.831,0,0,1,.762.983m1.808,2.76c-2.416,5.713-3.068,7.1-3.393,7.225-.615.236-2.314-.691-2.057-1.122,3.734-6.265,4.858-7.824,5.33-7.4.426.385.44.538.12,1.294" transform="translate(-18 -15.276)"/></svg>