<svg xmlns="http://www.w3.org/2000/svg" width="25" height="18.067" viewBox="0 0 25 18.067"><defs><style>.a{fill-rule:evenodd;}</style></defs><path class="a" d="M7.255,67.928c-.762,1.985,1.622,10.618,3.811,13.8.532.774.71,1.237.521,1.354a3.1,3.1,0,0,0-.834,2.127c.1.267,1.511.34,6.514.34,7.207,0,7.22,0,6.146-1.87l-.573-1,.593-.916c.382-.589.8-.917,1.172-.919a1.112,1.112,0,0,0,.871-.549,10.1,10.1,0,0,1,2.959-1.791c3.035-1.417,3.647-2.074,3.675-3.945a3.044,3.044,0,0,0-3.9-3.18c-1.267.335-1.166.527-.852-1.61.213-1.453.194-1.837-.1-2.021-.722-.457-19.827-.289-20.005.176M25.886,70.5a24.924,24.924,0,0,1-3.3,10.057l-1.031,1.6H13.226l-.718-.849c-1.618-1.913-3.4-6.955-3.889-10.977l-.181-1.5h17.62L25.886,70.5m4.3,2.746c1.48,1.48.6,2.831-2.772,4.254l-2.1.886.531-1.58a6.751,6.751,0,0,1,.772-1.754,2.867,2.867,0,0,0,.523-1.039,1.7,1.7,0,0,1,3.046-.768M21.8,83.851c.287.346-.231.392-4.411.392-4.326,0-5.072-.1-4.562-.61.392-.392,8.633-.192,8.973.218" transform="translate(-7.11 -67.482)"/></svg>