<svg xmlns="http://www.w3.org/2000/svg" width="25" height="25.015" viewBox="0 0 25 25.015"><defs><style>.a{fill-rule:evenodd;}</style></defs><path class="a" d="M11.789,8.408c-.311.443-.405,1.288-.405,3.612v3.033l-1.5-.352C7.943,14.243,8,14.234,8,14.985c0,.492.171.685.716.807.394.089,1.156.271,1.693.406l.977.244v2.8l-1.367-.364C8.172,18.385,8,18.407,8,19.129c0,.464.183.667.716.8,2.848.687,2.669.553,2.669,2.006v1.321l-.977-.181c-.537-.1-1.3-.244-1.693-.322-.635-.125-.716-.064-.716.543,0,.392.146.684.343.684a10.863,10.863,0,0,1,1.693.4l1.349.4v3.387c0,3.249.026,3.413.639,4.026l.639.639h7.659c9.6,0,9.031.247,9.031-3.9,0-2.842-.1-3.134-1.054-3.134a8.84,8.84,0,0,0-.3,2.8l-.074,2.8h-15.1l-.068-10.907c-.049-7.836.015-11.007.227-11.263.308-.371,13.741-.552,14.663-.2.343.132.412.667.412,3.207v3.049l-1.991-.5c-2.235-.561-2.9-.466-6.863.978A7,7,0,0,1,14.183,16c-.633-.14-.716-.083-.716.492,0,1.453,3.436,1.613,6.887.32,3.513-1.316,3.528-1.316,7.119-.269,4.54,1.325,5.525,1.436,5.525.624,0-.565-.179-.668-1.758-1.012l-1.758-.383-.13-3.542c-.179-4.865.77-4.4-9-4.4-8.133,0-8.158,0-8.562.579m8.449,11.144c-3.031,1.082-3.2,1.1-5.794.627-.915-.167-.977-.137-.977.471,0,1.471,3.7,1.574,7.161.2,3.029-1.2,3.432-1.2,7.518-.012C32.473,22.1,33,22.143,33,21.24c0-.458-.142-.651-.479-.651a31.625,31.625,0,0,1-3.581-.915c-4.685-1.382-5.157-1.389-8.7-.123m-.243,4.22c-3.075,1.106-3.981,1.155-6.072.327-.371-.147-.456-.039-.456.584,0,.705.1.788,1.322,1.07,2.005.463,2.562.391,5.709-.737,3.53-1.265,3.628-1.266,7.294-.141C32.078,26.191,33,26.3,33,25.465c0-.534-.159-.681-.883-.817-.485-.091-2.325-.573-4.088-1.071-4-1.129-4.38-1.12-8.033.194" transform="translate(-7.998 -7.817)"/></svg>