<svg xmlns="http://www.w3.org/2000/svg" width="25" height="21.99" viewBox="0 0 25 21.99"><defs><style>.a{fill-rule:evenodd;}</style></defs><path class="a" d="M13.822,28.716c-.363.394-1.85,2.205-3.306,4.026l-2.647,3.31.069,6.969.069,6.969H32.73l.069-6.837.069-6.837-3.177-3.963c-1.747-2.18-3.3-4.049-3.452-4.154a51.926,51.926,0,0,0-6.017-.2l-5.742,0-.659.716m14.2,3.7c1.375,1.713,2.5,3.177,2.5,3.253a13.111,13.111,0,0,1-2.673.138H25.172l-2.331-2.342c-2.822-2.836-2.356-2.836-5.214.01l-2.362,2.352-2.64-.075-2.64-.075,2.5-3.188,2.5-3.188H25.518l2.5,3.115m-5.437,2.611,2.07,2.082h6.909V48.819H26.1l-.07-5.4-.07-5.4H24.927c-1.182,0-1.694.824-.677,1.09.526.138.543.294.543,4.926v4.784H22.971v-2.33c0-3.308-.724-4.436-2.846-4.436-1.753,0-2.477,1.163-2.579,4.142l-.089,2.624H15.685V44c0-4.695.013-4.814.539-4.814.41,0,.519-.14.455-.586-.07-.5-.243-.586-1.124-.586H14.514l-.07,5.4-.07,5.4H8.918V37.108h7.169l2.07-2.082a24.462,24.462,0,0,1,2.212-2.082,24.462,24.462,0,0,1,2.212,2.082m-3.793,2.062a1.831,1.831,0,0,0-.458,2.444,2.165,2.165,0,0,0,4.113-.916,2.089,2.089,0,0,0-3.655-1.528m2.2,1.121c.218.347.184.55-.147.881A.824.824,0,1,1,19.6,38c.4-.488,1.007-.4,1.387.2m-11.126.6a7.775,7.775,0,0,0,0,3.091c.123.321.557.412,1.963.412h1.805l-.076-1.887-.076-1.887-1.724-.076c-1.4-.062-1.755,0-1.887.347m17.126-.058a7.99,7.99,0,0,0-.061,1.9L27,42.183h3.643V38.54l-1.76-.077c-1.327-.058-1.795.013-1.9.289M12.3,40.361c0,.52-.13.651-.651.651S11,40.882,11,40.361s.13-.651.651-.651.651.13.651.651m17.176,0c0,.52-.13.651-.651.651s-.651-.13-.651-.651.13-.651.651-.651.651.13.651.651m-8.283,3.423c.393.355.476.833.476,2.732v2.3H18.808V46.607c0-2.9,1-4.079,2.387-2.822m-11.337.241a7.03,7.03,0,0,0,.065,3.18c.149.235.725.315,1.883.26l1.668-.079.076-1.887.076-1.887H11.82c-1.406,0-1.84.091-1.963.412m17.13-.069a7.99,7.99,0,0,0-.061,1.9L27,47.388h3.643V43.744l-1.76-.077c-1.327-.058-1.795.013-1.9.289M12.3,45.566c0,.52-.13.651-.651.651S11,46.087,11,45.566s.13-.651.651-.651.651.13.651.651m17.176,0c0,.52-.13.651-.651.651s-.651-.13-.651-.651.13-.651.651-.651.651.13.651.651" transform="translate(-7.869 -28)"/></svg>