<svg xmlns="http://www.w3.org/2000/svg" width="25" height="16.252" viewBox="0 0 25 16.252"><defs><style>.a{fill-rule:evenodd;}</style></defs><path class="a" d="M5.393,68.806a2.148,2.148,0,0,0-.643,1.029c0,.272-.25.386-.847.386-1.4,0-1.972.676-2.1,2.463-.1,1.379-.167,1.537-.656,1.537-.9,0-1.145.491-1.145,2.273,0,1.736.151,1.977,1.24,1.977.37,0,.468.262.557,1.491.135,1.868.644,2.509,1.991,2.509.7,0,.961.1.961.386,0,1.34,2.844,2.17,4.194,1.224.514-.36.556-.585.556-3V78.472h5.75v2.5c0,3.113.262,3.5,2.375,3.5,1.5,0,2.375-.552,2.375-1.5,0-.41.168-.5.938-.5,1.541-.006,2.063-.7,2.063-2.73,0-1.237.017-1.266.741-1.266.934,0,1.259-.571,1.259-2.216,0-1.4-.433-2.034-1.393-2.034-.57,0-.607-.085-.607-1.386,0-1.729-.715-2.614-2.114-2.614-.709,0-.886-.1-.886-.482,0-1.553-3.614-2.082-4.559-.668a12.239,12.239,0,0,0-.187,2.713l0,2.438H9.5V71.769c0-3.046-.171-3.334-2.069-3.491-1.245-.1-1.463-.047-2.037.527m2.732,7.541V83.1h-2l-.067-6.5c-.077-7.472-.122-7.185,1.127-7.082l.939.078v6.75m10.5,0V83.1h-2l-.067-6.5c-.077-7.472-.122-7.185,1.127-7.082l.94.078v6.75M4.75,76.362v4.891l-.812-.078L3.125,81.1l-.071-4.25c-.086-5.133-.043-5.375.951-5.375H4.75v4.891m16.875-.016V81.1l-.812.078L20,81.253V71.44l.813.078.813.078v4.75m-19.875,0c0,.611-.113.875-.375.875S1,76.958,1,76.347s.113-.875.375-.875.375.264.375.875m13.5,0v.875H9.5v-1.75h5.75v.875m8.5,0c0,.611-.113.875-.375.875S23,76.958,23,76.347s.113-.875.375-.875.375.264.375.875" transform="translate(0 -68.236)"/></svg>