<svg xmlns="http://www.w3.org/2000/svg" width="25" height="23.246" viewBox="0 0 25 23.246"><defs><style>.a{fill-rule:evenodd;}</style></defs><path class="a" d="M35.194,22.439a15.542,15.542,0,0,0-1.952,1.179A6.114,6.114,0,0,1,31,24.662c-.435,0-.693.151-.693.407,0,.421-.248.5-1.289.417a.761.761,0,0,0-.783.4c-.123.321-.361.4-.845.278a1.235,1.235,0,0,0-1.19.3c-.4.359-.591.393-.836.149-.425-.425-.63-.4-1.158.124-.38.38-.539.392-1.11.087-.512-.274-.74-.282-.986-.037a1.763,1.763,0,0,1-1.062.32c-2.714,0-3.957,2.747-1.675,3.7,1.813.757.406,2.571-2.593,3.342-3.259.838-3.7,2.177-1.631,4.91a22.287,22.287,0,0,1,2.01,3.4c2.151,4.645,7.283,4.091,9.43-1.018a8.577,8.577,0,0,1,4.14-3.63c4.734-1.763,8.708-7.375,8.1-11.437C38.5,24.158,36.506,22,35.194,22.439m1.16,2.31c.564,1.692-1.673,5.16-3.545,5.5-1.55.28-1.874.547-2.35,1.938-.538,1.573-4.119,4.417-6.776,5.381A6.114,6.114,0,0,0,20.2,40.21c-1.079,1.42-1.741,1.319-2.851-.435-.493-.779-1.195-1.831-1.56-2.338-.835-1.161-.588-1.512,1.377-1.951,3.005-.673,4.564-2.245,4.41-4.45-.065-.926-.175-1.1-.754-1.179-1.842-.255-1.382-1.4.563-1.4.773,0,1.034.124,1.143.542a.722.722,0,0,0,.71.542c.387,0,.568-.173.568-.542,0-.632.683-.733.912-.136.236.614,1.258.517,1.258-.12,0-.752.47-.942.682-.275a.654.654,0,0,0,1.292-.19.723.723,0,0,1,.339-.737c.231-.089.4,0,.4.216,0,.417.734.78,1.109.548a1.14,1.14,0,0,0,.247-.815c0-.777.185-.824.855-.218a.672.672,0,0,0,1.151-.658c-.076-.326.4-.8,1.588-1.6,1.94-1.3,2.363-1.34,2.72-.27M37.508,28.1c-.612,3.264-4.13,7.256-7.464,8.472a8.756,8.756,0,0,0-4.73,4.212c-1.5,2.96-3.977,4.3-5.53,3-1.083-.912-1.078-1.034.069-1.449a4.607,4.607,0,0,0,1.891-1.672,3.617,3.617,0,0,1,2.478-1.777c2.361-.686,6.84-4.2,7.423-5.816.4-1.118.54-1.243,1.651-1.489a5.9,5.9,0,0,0,3.653-3.375q.926-2.054.559-.105" transform="translate(-13.895 -22.382)"/></svg>