<svg xmlns="http://www.w3.org/2000/svg" width="25" height="28.07" viewBox="0 0 25 28.07"><defs><style>.a{fill-rule:evenodd;}</style></defs><g transform="translate(-26.04 1.16)"><path class="a" d="M39.089-.307a3.109,3.109,0,0,0-.766,3.666l.417.837-.876-.252c-1.68-.484-10.938.973-11.466,1.8-1.035,1.627.082,2.159,4.534,2.159A14.673,14.673,0,0,1,34.6,8.14c0,.129-1.014,2.371-2.254,4.984-2.386,5.026-2.515,5.662-1.353,6.645.635.538,1.788.655,2.063.211.618-1,.523.056-.165,1.843-1.29,3.35-.957,4.9,1.056,4.9,1.28,0,1.545-.457,4.892-8.45,3.647-8.711,3.013-7.766,4.72-7.032,2.02.869,2.463.774,4.8-1.026,2.313-1.782,3.014-2.8,2.54-3.684-.652-1.218-1.7-1.024-3.851.715-1.446,1.169-1.044,1.228-4.074-.6C40.5,5.15,40.448,5.1,41.434,5.1A2.84,2.84,0,0,0,44.289,2.01a3.074,3.074,0,0,0-5.2-2.317m3.564,1.369a1.628,1.628,0,0,1-.6,2.4A1.718,1.718,0,0,1,39.608,1.3a1.7,1.7,0,0,1,3.045-.237M39.573,6.4c1.358.716,3.189,1.79,4.068,2.387,1.956,1.327,2.071,1.33,3.7.09a4.871,4.871,0,0,1,1.3-.851,9.778,9.778,0,0,1-1.547,1.312L45.547,10.5l-1.7-.738c-2.9-1.258-2.009-2.5-7.248,10.073-1.426,3.422-2.384,5.368-2.672,5.426-.715.145-.563-.485,1.39-5.753,1.859-5.017,2.058-6.051,1.195-6.216-.506-.1-1.258.842-3.109,3.881-.863,1.416-1.132,1.677-1.454,1.41s-.1-.945,1.41-4.136c4.127-8.706,4.246-7.91-1.2-8.012L28,6.362l4.071-.6c2.239-.331,4.287-.615,4.551-.632A13.117,13.117,0,0,1,39.573,6.4m.621,14.923a3.19,3.19,0,0,0,1.1,5.414,3.085,3.085,0,0,0,4.164-3.379,3.139,3.139,0,0,0-5.261-2.036m3.372,1.362c.714.907.726,1.266.074,2.072-.92,1.136-3.142.443-3.142-.98a2.535,2.535,0,0,1,1.825-1.832,1.854,1.854,0,0,1,1.243.74" transform="translate(0 0)"/></g></svg>