<?xml version="1.0" encoding="iso-8859-1"?>
<!-- Generator: Adobe Illustrator 19.0.0, SVG Export Plug-In . SVG Version: 6.00 Build 0)  -->
<svg version="1.1" id="Layer_1" xmlns="http://www.w3.org/2000/svg" xmlns:xlink="http://www.w3.org/1999/xlink" x="0px" y="0px"
	 viewBox="0 0 512.077 512.077" style="enable-background:new 0 0 512.077 512.077;" xml:space="preserve">
<g>
	<g>
		<path d="M401.144,42.705c-37.547,0-68.267,30.72-68.267,68.267c0,37.547,30.72,68.267,68.267,68.267
			c37.547,0,68.267-30.72,68.267-68.267C469.41,73.425,438.69,42.705,401.144,42.705z M401.144,162.172
			c-28.16,0-51.2-23.04-51.2-51.2c0-28.16,23.04-51.2,51.2-51.2c28.16,0,51.2,23.04,51.2,51.2
			C452.344,139.132,429.304,162.172,401.144,162.172z"/>
	</g>
</g>
<g>
	<g>
		<path d="M401.144,0.038c-5.12,0-8.533,3.413-8.533,8.533v17.067c0,5.12,3.413,8.533,8.533,8.533c5.12,0,8.533-3.413,8.533-8.533
			V8.572C409.677,3.452,406.264,0.038,401.144,0.038z"/>
	</g>
</g>
<g>
	<g>
		<path d="M401.144,187.772c-5.12,0-8.533,3.413-8.533,8.533v17.067c0,5.12,3.413,8.533,8.533,8.533c5.12,0,8.533-3.413,8.533-8.533
			v-17.067C409.677,191.185,406.264,187.772,401.144,187.772z"/>
	</g>
</g>
<g>
	<g>
		<path d="M503.544,102.438h-17.067c-5.12,0-8.533,3.413-8.533,8.533s3.413,8.533,8.533,8.533h17.067
			c5.12,0,8.533-3.413,8.533-8.533S508.664,102.438,503.544,102.438z"/>
	</g>
</g>
<g>
	<g>
		<path d="M315.81,102.438h-17.067c-5.12,0-8.533,3.413-8.533,8.533s3.413,8.533,8.533,8.533h17.067c5.12,0,8.533-3.413,8.533-8.533
			S320.93,102.438,315.81,102.438z"/>
	</g>
</g>
<g>
	<g>
		<path d="M347.384,45.265l-17.067-17.067c-3.413-3.413-8.533-3.413-11.947,0s-3.413,8.533,0,11.947l17.067,17.067
			c1.707,1.707,3.413,2.56,5.973,2.56s4.267-0.853,5.973-2.56C350.797,53.798,350.797,48.678,347.384,45.265z"/>
	</g>
</g>
<g>
	<g>
		<path d="M483.917,181.798l-17.067-17.067c-3.413-3.413-8.533-3.413-11.947,0c-3.413,3.413-3.413,8.533,0,11.947l17.067,17.067
			c1.707,1.707,3.413,2.56,5.973,2.56s4.267-0.853,5.973-2.56C487.33,190.332,487.33,185.212,483.917,181.798z"/>
	</g>
</g>
<g>
	<g>
		<path d="M483.917,28.198c-3.413-3.413-8.533-3.413-11.947,0l-17.067,17.067c-3.413,3.413-3.413,8.533,0,11.947
			c1.707,1.707,3.413,2.56,5.973,2.56s4.267-0.853,5.973-2.56l17.067-17.067C487.33,36.732,487.33,31.612,483.917,28.198z"/>
	</g>
</g>
<g>
	<g>
		<path d="M347.384,164.732c-3.413-3.413-8.533-3.413-11.947,0l-17.067,17.067c-3.413,3.413-3.413,8.533,0,11.947
			c1.707,1.707,3.413,2.56,5.973,2.56s4.267-0.853,5.973-2.56l17.067-17.067C350.797,173.265,350.797,168.145,347.384,164.732z"/>
	</g>
</g>
<g>
	<g>
		<path d="M111.01,187.772c-33.28,0-51.2,17.92-51.2,51.2c0,5.12,3.413,8.533,8.533,8.533s8.533-3.413,8.533-8.533
			c0-23.893,10.24-34.133,34.133-34.133c5.12,0,8.533-3.413,8.533-8.533S116.13,187.772,111.01,187.772z"/>
	</g>
</g>
<g>
	<g>
		<path d="M34.21,196.305c-5.12,0-8.533,3.413-8.533,8.533c0,5.12,3.413,8.533,8.533,8.533c18.773,0,25.6,6.827,25.6,25.6
			c0,5.12,3.413,8.533,8.533,8.533s8.533-3.413,8.533-8.533C76.877,210.812,62.37,196.305,34.21,196.305z"/>
	</g>
</g>
<g>
	<g>
		<path d="M169.89,43.558c-3.413-10.24-13.653-17.92-24.747-17.92c-11.947,0-21.333,7.68-24.747,17.92
			c-10.24,3.413-17.92,12.8-17.92,24.747s7.68,21.333,17.92,24.747c3.413,10.24,12.8,17.92,24.747,17.92h17.067
			c18.773,0,34.133-15.36,34.133-34.133C196.344,60.625,185.25,46.972,169.89,43.558z M162.21,93.905h-17.067
			c-5.12,0-8.533-3.413-8.533-8.533c0-5.12-3.413-8.533-8.533-8.533c-5.12,0-8.533-3.413-8.533-8.533s3.413-8.533,8.533-8.533
			c5.12,0,8.533-3.413,8.533-8.533s3.413-8.533,8.533-8.533c5.12,0,8.533,3.413,8.533,8.533s3.413,8.533,8.533,8.533
			c9.387,0,17.067,7.68,17.067,17.067S171.597,93.905,162.21,93.905z"/>
	</g>
</g>
<g>
	<g>
		<path d="M390.904,499.239l-76.8-93.867c-1.707-1.707-3.413-3.413-5.973-3.413c-1.707-0.853-4.267,0-5.973,1.707l-45.227,37.547
			l-54.613-54.613c-1.707-1.707-4.267-2.56-5.973-2.56c-2.56,0-4.267,0.853-5.973,2.56L87.97,497.532
			c-2.56,2.56-3.413,5.973-1.707,9.387c0.853,3.413,4.267,5.12,7.68,5.12h290.133c3.413,0,5.973-1.707,7.68-3.413
			C393.464,505.212,392.61,501.799,390.904,499.239z M113.57,494.972l82.773-90.453l54.613,53.76
			c2.56,3.413,7.68,3.413,11.093,0.853l44.373-37.547l59.733,73.387H113.57z"/>
	</g>
</g>
<g>
	<g>
		<path d="M511.224,500.945l-51.2-145.067c-0.853-2.56-3.413-4.267-5.973-5.12l-65.707-16.213L262.05,208.252
			c-3.413-3.413-8.533-3.413-11.947,0L123.81,334.545l-65.707,16.213c-2.56,0-5.12,2.56-5.973,5.12L0.93,500.945
			c-1.707,2.56-0.853,5.12,0.853,7.68c1.707,1.707,4.267,3.413,6.827,3.413h494.933c2.56,0,5.12-1.707,6.827-3.413
			C512.077,506.065,512.077,503.505,511.224,500.945z M20.557,494.972l45.227-128.853l64-16.213c1.707-0.853,3.413-1.707,4.267-2.56
			l122.027-122.027l122.027,122.027c1.707,1.707,2.56,2.56,4.267,2.56l63.147,15.36l46.08,129.707H20.557z"/>
	</g>
</g>
<g>
	<g>
		<path d="M175.864,360.145l-42.667-25.6c-4.267-2.56-9.387-1.707-11.947,2.56c-2.56,4.267-1.707,9.387,2.56,11.947l42.667,25.6
			l4.267,0.853c2.56,0,5.973-1.707,7.68-3.413C180.984,367.825,180.13,362.705,175.864,360.145z"/>
	</g>
</g>
<g>
	<g>
		<path d="M390.904,336.252c-2.56-3.413-7.68-5.12-11.947-2.56l-42.667,25.6c-3.413,2.56-5.12,7.68-2.56,11.947
			c1.707,2.56,5.12,4.267,7.68,4.267c1.707,0,46.933-27.307,46.933-27.307C391.757,345.638,393.464,340.518,390.904,336.252z"/>
	</g>
</g>
<g>
</g>
<g>
</g>
<g>
</g>
<g>
</g>
<g>
</g>
<g>
</g>
<g>
</g>
<g>
</g>
<g>
</g>
<g>
</g>
<g>
</g>
<g>
</g>
<g>
</g>
<g>
</g>
<g>
</g>
</svg>
