<svg xmlns="http://www.w3.org/2000/svg" width="25" height="12.566" viewBox="0 0 25 12.566"><defs><style>.a{fill-rule:evenodd;}</style></defs><path class="a" d="M7.626,95.742c-3.562,1.761-4.2,2.289-4.2,3.463,0,1.928,1.43,2.11,4.691.6l2.393-1.111.393.759c.477.922.877.554-3.506,3.221L3.724,104.9l-1.216-.616a5.694,5.694,0,0,1-1.374-.871.613.613,0,0,0-1.127.308c0,1.163,3.714,2.834,6.894,3.1a19.119,19.119,0,0,0,7.494-1.171c3.457-1.064,5.053-.946,8.574.634,1.579.709,2.285.633,1.962-.211-.3-.78-4.737-2.418-6.551-2.418-.69,0-.8-.106-1.042-1.015l-.271-1.015.57.535a2.9,2.9,0,0,0,4.757-2.643c-.665-3.543-6.044-2.646-5.565.928.172,1.286.249,1.368-1.956-2.1-3.107-4.892-2.83-4.792-7.247-2.608m6.24,3.476a25.335,25.335,0,0,1,2.25,4.029c.031,1.03-7.288,2.765-9.731,2.307l-.934-.175,3.442-2.095c4.594-2.8,4.374-2.5,3.254-4.344-1.235-2.032-1.1-2.013-4.024-.559-2.756,1.37-3.232,1.495-3.458.907-.175-.456.16-.677,3.712-2.446,3.327-1.657,2.793-1.888,5.488,2.376m6.775-.192a1.525,1.525,0,1,1-1.977-.1c.853-.671,1.229-.653,1.977.1" transform="translate(-0.007 -94.307)"/></svg>