<svg height="512" viewBox="0 0 60 60" width="512" xmlns="http://www.w3.org/2000/svg"><g id="Page-1" fill="none" fill-rule="evenodd"><g id="036---Charkras" fill="rgb(0,0,0)" fill-rule="nonzero"><path id="Shape" d="m53 25h-7.343l-4.824-4.824c-.7464467-.7589781-1.7684916-1.1832368-2.833-1.176h-3.424c.2724302-.6165282.4166845-1.2820032.424-1.956 1.2219576-2.3944407 1.9046208-5.0274726 2-7.714.0332737-1.74747312-.7075948-3.42028401-2.024-4.57-.1193421-2.66148989-2.3118358-4.75787447-4.976-4.75787447s-4.8566579 2.09638458-4.976 4.75787447c-1.3164052 1.14971599-2.0572737 2.82252688-2.024 4.57.0953792 2.6865274.7780424 5.3195593 2 7.714.0072042.6740093.1514633 1.3395065.424 1.956h-3.448c-1.1030867.0445631-2.1479883.5067792-2.923 1.293l-4.713 4.707h-7.34c-3.86416566.0044086-6.99559136 3.1358343-7 7 0 .5522847.44771525 1 1 1h13.34c2.1216266-.0050193 4.1555804-.8469899 5.66-2.343l1-1v13.72c-2.2570919 1.1346949-4.4458346 2.4005261-6.555 3.791-2.828 1.885-5.445 4.139-5.445 7.832-.04457928 1.1280748.39800056 2.2208646 1.215 3h-6.215c-.55228475 0-1 .4477153-1 1s.44771525 1 1 1h52c.5522847 0 1-.4477153 1-1s-.4477153-1-1-1h-6.215c.8169994-.7791354 1.2595793-1.8719252 1.215-3 0-3.693-2.617-5.947-5.446-7.833-2.1090481-1.3898037-4.2974381-2.6552901-6.554-3.79v-13.723l1 1c1.503932 1.4971098 3.5379455 2.3401832 5.66 2.346h13.34c.5522847 0 1-.4477153 1-1-.0044086-3.8641657-3.1358343-6.9955914-7-7zm-26-8c0-1.6568542 1.3431458-3 3-3s3 1.3431458 3 3-1.3431458 3-3 3-3-1.3431458-3-3zm3-15c1.6568542 0 3 1.34314575 3 3s-1.3431458 3-3 3-3-1.34314575-3-3 1.3431458-3 3-3zm-4.448 5.237c.8357321 1.6941472 2.5609307 2.7667907 4.45 2.7667907s3.6142679-1.0726435 4.45-2.7667907c.3662229.6362415.5554394 1.35892432.548 2.093-.0586601 1.637894-.369651 3.2569354-.922 4.8-.9307018-1.3318806-2.4531579-2.1253437-4.078-2.1253437s-3.1472982.7934631-4.078 2.1253437c-.552349-1.5430646-.8633399-3.162106-.922-4.8-.0062242-.73444455.1843799-1.45715174.552-2.093zm1.448 47.763c0-1.6568542 1.3431458-3 3-3s3 1.3431458 3 3-1.3431458 3-3 3-3-1.3431458-3-3zm22 0c0 1.558-.969 3-8 3h-7.026c1.0661825-1.3720949 1.3217916-3.2078327.671-4.819 2.034-.119 4.162-.181 6.355-.181.5522847 0 1-.4477153 1-1s-.4477153-1-1-1c-2.682 0-5.271.091-7.71.265-1.8732572-1.690184-4.7223657-1.6862936-6.591.009-2.399-.18-4.983-.274-7.699-.274-.5522847 0-1 .4477153-1 1s.4477153 1 1 1c2.219 0 4.346.064 6.353.186-.6482957 1.6100969-.3919957 3.4434222.673 4.814h-7.026c-7.031 0-8-1.442-8-3 0-2.253 1.277-3.983 4.554-6.167 2.145897-1.4112947 4.3753131-2.6913055 6.676-3.833h3.8c.9333405 1.2582223 2.407396 2.0001147 3.974 2.0001147s3.0406595-.7418924 3.974-2.0001147h3.8c2.3002803 1.1414816 4.5293565 2.421155 6.675 3.832 3.27 2.185 4.547 3.915 4.547 6.168zm-22-13c0-1.6568542 1.3431458-3 3-3s3 1.3431458 3 3-1.3431458 3-3 3-3-1.3431458-3-3zm18.66-11c-1.5905235-.004062-3.1152284-.6354329-4.243-1.757l-2.71-2.71c-.2859943-.2859079-.7160366-.3714219-1.0896546-.216678-.3736179.1547439-.6172591.5192821-.6173454.923678v15.76h-2.1c.4033973-1.9866048-.4326143-4.0201806-2.1166285-5.1486416-1.6840142-1.1284611-3.8827288-1.1284611-5.566743 0-1.6840142 1.128461-2.5200258 3.1620368-2.1166285 5.1486416h-2.1v-15.76c-.0000863-.4043959-.2437275-.7689341-.6173454-.923678-.373618-.1547439-.8036603-.0692299-1.0896546.216678l-2.71 2.71c-1.1277716 1.1215671-2.6524765 1.752938-4.243 1.757h-12.24c.47808203-2.3266291 2.52476136-3.9973877 4.9-4h7.34c.530081-.003142 1.038188-.2121938 1.417-.583l4.71-4.709c.4058021-.4175425.9520028-.6697996 1.533-.708h5.031c1.7547356 1.3334973 4.1832644 1.3334973 5.938 0h5.031c.5310309-.0036207 1.040849.2081721 1.413.587l4.848 4.848c.3766768.3613128.8780512.5636531 1.4.565h7.339c2.3752386.0026123 4.421918 1.6733709 4.9 4z"/><path id="Shape" d="m30 24c-2.7614237 0-5 2.2385763-5 5s2.2385763 5 5 5 5-2.2385763 5-5c-.0033061-2.7600532-2.2399468-4.9966939-5-5zm0 8c-1.6568542 0-3-1.3431458-3-3s1.3431458-3 3-3 3 1.3431458 3 3-1.3431458 3-3 3z"/></g></g></svg>