<svg height="512" viewBox="0 0 60 60" width="512" xmlns="http://www.w3.org/2000/svg"><g id="Page-1" fill="none" fill-rule="evenodd"><g id="008---Wifi-Modem" fill="rgb(0,0,0)" fill-rule="nonzero"><path id="Shape" d="m56 56h-52c-2.20817941-.0023149-3.99768506-1.7918206-4-4v-10c.00231494-2.2081794 1.79182059-3.9976851 4-4h52c2.2081794.0023149 3.9976851 1.7918206 4 4v10c-.0023149 2.2081794-1.7918206 3.9976851-4 4zm-52-16c-1.10404407.0012675-1.99873253.8959559-2 2v10c.00126747 1.1040441.89595593 1.9987325 2 2h52c1.1040441-.0012675 1.9987325-.8959559 2-2v-10c-.0012675-1.1040441-.8959559-1.9987325-2-2z"/><path id="Shape" d="m17 60h-9c-1.65610033-.0018187-2.99818129-1.3438997-3-3v-2c0-.5522847.44771525-1 1-1h13c.5522847 0 1 .4477153 1 1v2c-.0018187 1.6561003-1.3438997 2.9981813-3 3zm-10-4v1c.0004962.5520791.44792091.9995038 1 1h9c.5520791-.0004962.9995038-.4479209 1-1v-1z"/><path id="Shape" d="m52 60h-9c-1.6561003-.0018187-2.9981813-1.3438997-3-3v-2c0-.5522847.4477153-1 1-1h13c.5522847 0 1 .4477153 1 1v2c-.0018187 1.6561003-1.3438997 2.9981813-3 3zm-10-4v1c.0004962.5520791.4479209.9995038 1 1h9c.5520791-.0004962.9995038-.4479209 1-1v-1z"/><path id="Shape" d="m59 51h-58c-.55228475 0-1-.4477153-1-1v-6c0-.5522847.44771525-1 1-1h58c.5522847 0 1 .4477153 1 1v6c0 .5522847-.4477153 1-1 1zm-57-2h56v-4h-56z"/><circle id="Oval" cx="46" cy="47" r="1"/><circle id="Oval" cx="6" cy="47" r="1"/><circle id="Oval" cx="50" cy="47" r="1"/><circle id="Oval" cx="54" cy="47" r="1"/><path id="Shape" d="m11 40h-6c-.55228475 0-1-.4477153-1-1v-9c.00126747-1.1040441.89595593-1.9987325 2-2h4c1.1040441.0012675 1.9987325.8959559 2 2v9c0 .5522847-.4477153 1-1 1zm-5-2h4v-8h-4z"/><path id="Shape" d="m10 30h-4c-.55228475 0-1-.4477153-1-1v-26c0-1.65685425 1.34314575-3 3-3s3 1.34314575 3 3v26c0 .5522847-.4477153 1-1 1zm-3-2h2v-25c0-.55228475-.44771525-1-1-1s-1 .44771525-1 1z"/><path id="Shape" d="m55 40h-6c-.5522847 0-1-.4477153-1-1v-9c.0012675-1.1040441.8959559-1.9987325 2-2h4c1.1040441.0012675 1.9987325.8959559 2 2v9c0 .5522847-.4477153 1-1 1zm-5-2h4v-8h-4z"/><path id="Shape" d="m54 30h-4c-.5522847 0-1-.4477153-1-1v-26c0-1.65685425 1.3431458-3 3-3s3 1.34314575 3 3v26c0 .5522847-.4477153 1-1 1zm-3-2h2v-25c0-.55228475-.4477153-1-1-1s-1 .44771525-1 1z"/><path id="Shape" d="m46 20.7109c-.4039243.0000882-.7681479-.2430959-.9229-.6162-2.5294227-6.094173-8.4788484-10.06636-15.0771-10.06636s-12.5476773 3.972187-15.0771 10.06636c-.1312746.3385853-.4357849.5793938-.795511.6290946-.3597261.0497009-.7181237-.0995182-.9362879-.389824-.2181641-.2903058-.2618021-.676066-.1140011-1.0077706 2.8394619-6.8398214 9.5171117-11.29788052 16.9229-11.29788052s14.0834381 4.45805912 16.9229 11.29788052c.1281922.3086224.0938813.6608656-.0914599.9389477s-.4972533.4453046-.8314401.4457523z"/><path id="Shape" d="m40.1787 22.7969c-.4036766-.0001648-.7676671-.2430224-.9228-.6157-1.5521771-3.7419699-5.2047776-6.1812329-9.2559-6.1812329s-7.7037229 2.439263-9.2559 6.1812329c-.2165707.5033468-.7978891.7386541-1.3036057.5276763-.5057165-.2109778-.7474533-.7896521-.5420943-1.2976763 1.862565-4.4871659 6.2432252-7.4118683 11.1016-7.4118683s9.239035 2.9247024 11.1016 7.4118683c.1281317.3086925.0938098.6609612-.0914989.9391149-.1853086.2781538-.4971731.445521-.8314011.4461851z"/><path id="Shape" d="m34.3584 25.0005c-.4019691-.0000266-.7648021-.2408778-.9209-.6113-.5745799-1.3918222-1.9317407-2.2998119-3.4375-2.2998119s-2.8629201.9079897-3.4375 2.2998119c-.1338416.3367959-.4394315.5748174-.7987447.6221358-.3593133.0473183-.7161064-.1034732-.9325787-.3941358s-.2587393-.6756989-.1104766-1.0064c.8872084-2.132179 2.9699005-3.5213617 5.2793-3.5213617s4.3920916 1.3891827 5.2793 3.5213617c.1302645.3088575.0972884.6624163-.087846.9418569-.1851344.2794405-.4978503.4476667-.833054.4481431z"/><circle id="Oval" cx="30" cy="26" r="1"/></g></g></svg>